<?xml version="1.0" standalone="no"?><!DOCTYPE svg PUBLIC "-//W3C//DTD SVG 1.1//EN" "http://www.w3.org/Graphics/SVG/1.1/DTD/svg11.dtd"><svg t="1604911326427" class="icon" viewBox="0 0 1024 1024" version="1.1" xmlns="http://www.w3.org/2000/svg" p-id="7739" xmlns:xlink="http://www.w3.org/1999/xlink" width="32" height="32"><defs><style type="text/css"></style></defs><path d="M928 512h-128a288 288 0 0 0-288-288V96a416 416 0 0 1 416 416z" fill="#C0C5D3" p-id="7740"></path><path d="M224 512H96A416 416 0 0 1 512 96v128a288 288 0 0 0-288 288z" fill="#9BA1B5" p-id="7741"></path><path d="M512 928A416 416 0 0 1 96 512h128a288 288 0 0 0 288 288z" fill="#C0C5D3" p-id="7742"></path><path d="M512 928v-128a288 288 0 0 0 288-288h128a416 416 0 0 1-416 416z" fill="#9BA1B5" p-id="7743"></path></svg>