<?xml version="1.0" standalone="no"?><!DOCTYPE svg PUBLIC "-//W3C//DTD SVG 1.1//EN" "http://www.w3.org/Graphics/SVG/1.1/DTD/svg11.dtd"><svg t="1604911492844" class="icon" viewBox="0 0 1024 1024" version="1.1" xmlns="http://www.w3.org/2000/svg" p-id="9511" xmlns:xlink="http://www.w3.org/1999/xlink" width="32" height="32"><defs><style type="text/css"></style></defs><path d="M169.472 516.608s-2.56 0 0 0l-2.048-4.608h2.048c13.312 0 73.728-9.216 138.752-105.472 76.288-112.128 181.248-141.312 237.568-147.968v4.608c-56.32 6.656-159.232 33.792-232.96 145.92-40.448 60.416-80.896 87.552-107.52 98.816 31.232-4.608 78.336-13.312 123.392-35.84 91.648-49.152 217.088-45.056 217.088-45.056v6.656c-2.048 0-123.392-4.608-215.04 45.056-65.024 33.792-138.752 40.448-159.232 40.448 0-2.56 0-2.56-2.048-2.56z" fill="#bfbfbf" p-id="9512"></path><path d="M547.84 772.096c-58.368-6.656-163.328-35.84-237.568-147.968-62.464-94.208-123.392-102.912-138.752-105.472h-4.608V512h6.656c19.968 0 94.208 6.656 159.232 40.448 91.648 47.104 212.992 45.056 215.04 45.056v6.656c-2.048 0-125.44 4.608-217.088-45.056-45.056-22.528-91.648-33.792-123.392-35.84 27.136 11.264 67.072 37.888 107.52 98.304 73.728 109.568 177.152 138.752 232.96 145.408v5.12z m33.792-510.976l-2.048-6.656s58.368 0 109.568-22.528c51.712-24.576 150.016-19.968 154.624-19.968v6.656s-100.864-2.048-152.576 19.968c-47.104 22.528-100.864 22.528-109.568 22.528z" fill="#bfbfbf" p-id="9513"></path><path d="M841.216 305.664c-17.92 0-102.912-2.048-150.016-22.528-51.712-22.528-109.568-19.968-109.568-19.968v-6.656s60.416-2.048 112.128 19.968 150.016 22.528 152.576 22.528v6.656h-5.12z m-259.584 121.344v-4.608s58.368 0 109.568-22.528c51.712-24.576 150.016-19.968 154.624-19.968v6.656s-100.864-2.048-152.576 19.968c-49.152 20.48-102.912 20.48-111.616 20.48z" fill="#bfbfbf" p-id="9514"></path><path d="M841.216 471.552c-17.92 0-102.912-2.048-150.016-22.528-51.712-22.528-109.568-19.968-109.568-19.968v-6.656s60.416-2.048 112.128 19.968 150.016 22.528 152.576 22.528v6.656h-5.12z m-259.584 132.096l-2.048-6.656s58.368 0 109.568-22.528c51.712-24.576 150.016-19.968 154.624-19.968v6.656s-100.864-2.048-152.576 19.968c-47.104 20.48-100.864 22.528-109.568 22.528z" fill="#bfbfbf" p-id="9515"></path><path d="M841.216 646.144c-17.92 0-102.912-2.048-150.016-22.528-51.712-22.528-109.568-19.968-109.568-19.968v-6.656s60.416-2.048 112.128 19.968c51.712 22.528 150.016 22.528 152.576 22.528v6.656h-5.12z m-259.584 125.952l-2.048-6.656s58.368 0 109.568-22.528c51.712-24.576 150.016-19.968 154.624-19.968v6.656s-100.864-2.048-152.576 19.968c-47.104 19.968-100.864 22.528-109.568 22.528z" fill="#bfbfbf" p-id="9516"></path><path d="M841.216 814.592c-17.92 0-102.912-2.048-150.016-22.528-51.712-22.528-109.568-19.968-109.568-19.968v-6.656s60.416-2.048 112.128 19.968c51.712 22.528 150.016 22.528 152.576 22.528v6.656h-5.12zM834.56 301.568c0 19.968 15.872 35.84 35.84 35.84s35.84-15.872 35.84-35.84-15.872-35.84-35.84-35.84-35.84 15.872-35.84 35.84zM834.56 209.408c0 19.968 15.872 35.84 35.84 35.84s35.84-15.872 35.84-35.84-15.872-35.84-35.84-35.84-35.84 16.384-35.84 35.84zM834.56 471.552c0 19.968 15.872 35.84 35.84 35.84s35.84-15.872 35.84-35.84-15.872-35.84-35.84-35.84-35.84 16.384-35.84 35.84zM834.56 379.904c0 19.968 15.872 35.84 35.84 35.84s35.84-15.872 35.84-35.84-15.872-35.84-35.84-35.84-35.84 15.872-35.84 35.84zM834.56 644.096c0 19.968 15.872 35.84 35.84 35.84s35.84-15.872 35.84-35.84-15.872-35.84-35.84-35.84-35.84 15.872-35.84 35.84zM834.56 552.448c0 19.968 15.872 35.84 35.84 35.84s35.84-15.872 35.84-35.84-15.872-35.84-35.84-35.84-35.84 15.872-35.84 35.84z" fill="#bfbfbf" p-id="9517"></path><path d="M834.56 814.592c0 19.968 15.872 35.84 35.84 35.84s35.84-15.872 35.84-35.84-15.872-35.84-35.84-35.84-35.84 15.872-35.84 35.84zM834.56 722.432c0 19.968 15.872 35.84 35.84 35.84s35.84-15.872 35.84-35.84-15.872-35.84-35.84-35.84-35.84 16.384-35.84 35.84z" fill="#bfbfbf" p-id="9518"></path><path d="M527.872 259.072c0 19.968 15.872 35.84 35.84 35.84s35.84-15.872 35.84-35.84-15.872-35.84-35.84-35.84-35.84 15.872-35.84 35.84zM527.872 429.056c0 19.968 15.872 35.84 35.84 35.84s35.84-15.872 35.84-35.84-15.872-35.84-35.84-35.84-35.84 15.872-35.84 35.84zM117.76 518.656c0 19.968 15.872 35.84 35.84 35.84s35.84-15.872 35.84-35.84-15.872-35.84-35.84-35.84-35.84 15.872-35.84 35.84zM527.872 601.6c0 19.968 15.872 35.84 35.84 35.84s35.84-15.872 35.84-35.84-15.872-35.84-35.84-35.84-35.84 15.872-35.84 35.84zM527.872 769.536c0 19.968 15.872 35.84 35.84 35.84s35.84-15.872 35.84-35.84-15.872-35.84-35.84-35.84-35.84 15.872-35.84 35.84z" fill="#bfbfbf" p-id="9519"></path></svg>