<?xml version="1.0" standalone="no"?><!DOCTYPE svg PUBLIC "-//W3C//DTD SVG 1.1//EN" "http://www.w3.org/Graphics/SVG/1.1/DTD/svg11.dtd"><svg t="1604911101608" class="icon" viewBox="0 0 1024 1024" version="1.1" xmlns="http://www.w3.org/2000/svg" p-id="6008" xmlns:xlink="http://www.w3.org/1999/xlink" width="32" height="32"><defs><style type="text/css"></style></defs><path d="M959.51 512a446.07 446.07 0 0 0-55.14-214.61l0.11-0.07-5.12-8.82-5.09-8.76-0.11 0.06C814.79 149.84 673.85 68.45 522.17 65v-0.13h-20.34V65c-151.68 3.49-292.62 84.88-372 214.83l-0.11-0.06-5.1 8.77-5.12 8.82 0.11 0.07a445.21 445.21 0 0 0 0 429.23l-0.11 0.07 5.12 8.82 5.1 8.77 0.11-0.06c79.38 129.95 220.32 211.34 372 214.84v0.13h20.34V959c151.68-3.49 292.61-84.89 372-214.84l0.11 0.06 5.08-8.74 5.12-8.82-0.11-0.07A446.07 446.07 0 0 0 959.51 512zM522.17 85.29c144.44 3.49 278.64 81 354.38 204.66l-78.44 45.24c-59.49-95.76-163.66-155.93-275.94-159.36zM311.69 615.82L233.3 661a314.57 314.57 0 0 1 0-298.07l78.38 45.21L408 463.75a113.69 113.69 0 0 0 0 96.49l-96.34 55.58z m190.14-329.31v0.23h-0.56q-2.71 0.13-5.42 0.33l-1.56 0.12q-2.7 0.22-5.38 0.5l-1.5 0.16q-2.73 0.3-5.44 0.67l-1.29 0.19c-1.83 0.26-3.66 0.54-5.48 0.84l-1 0.17q-2.65 0.46-5.28 1l-1 0.2c-1.84 0.37-3.67 0.77-5.5 1.19l-1.28 0.29q-2.68 0.63-5.35 1.33l-1.32 0.35q-2.66 0.71-5.31 1.49l-1.24 0.37q-2.7 0.81-5.37 1.68l-1 0.33q-2.77 0.92-5.52 1.91l-0.51 0.19q-2.71 1-5.39 2l-0.77 0.3q-2.69 1.07-5.36 2.21l-1 0.42q-2.61 1.13-5.19 2.33l-1 0.47q-2.59 1.21-5.14 2.49l-0.91 0.46q-2.62 1.32-5.2 2.71l-0.63 0.35q-2.72 1.48-5.4 3h-0.06q-2.7 1.56-5.36 3.2l-0.5 0.3q-2.56 1.58-5.07 3.24l-0.7 0.46q-2.47 1.63-4.89 3.33l-0.72 0.51q-2.43 1.72-4.82 3.49l-0.61 0.46q-2.45 1.84-4.86 3.75l-0.3 0.24q-5.05 4-9.88 8.34l-0.26 0.23q-2.33 2.09-4.61 4.25l-0.43 0.41q-2.24 2.13-4.42 4.32l-0.45 0.45q-2.19 2.22-4.32 4.49l-0.33 0.35q-2.2 2.36-4.34 4.79-4.44 5.05-8.6 10.39v0.06q-2 2.6-4 5.26l-0.2 0.27q-1.92 2.63-3.77 5.32l-0.2 0.29q-1.86 2.72-3.66 5.51v0.05l-78.58-45.33q2.87-4.6 5.89-9.09l0.06-0.08q1.41-2.09 2.84-4.15l0.27-0.39q1.33-1.91 2.69-3.79l0.41-0.57q1.3-1.79 2.62-3.56l0.5-0.67q1.29-1.72 2.6-3.42l0.56-0.72q1.3-1.67 2.61-3.32l0.59-0.73q1.32-1.64 2.66-3.26l0.59-0.72q1.36-1.63 2.73-3.25l0.57-0.67q1.42-1.65 2.86-3.29l0.48-0.55q1.52-1.71 3.06-3.4l0.34-0.38q1.68-1.83 3.38-3.64l0.07-0.08q8.83-9.35 18.35-17.92l0.51-0.46q1.6-1.44 3.23-2.86l0.86-0.75q1.46-1.26 2.93-2.51l1.08-0.91 2.76-2.29 1.23-1 2.65-2.13 1.34-1.06 2.59-2 1.43-1.09 2.55-1.92 1.5-1.11 2.53-1.84 1.49-0.94 2.52-1.77 1.6-1.11 2.53-1.71 1.63-1.09 2.54-1.67 1.65-1.07 2.6-1.64 1.63-1 2.73-1.66L350 241q1.71-1 3.43-2l2.06-1.18 3.05-1.73 2.11-1.16 2.24-1.22 2.29-1.21 2.08-1.09 2.39-1.22 2-1 2.46-1.21 2-1 2.52-1.19 2-0.91 2.57-1.17 1.93-0.86 2.63-1.14 1.9-0.81 2.69-1.12 1.86-0.76 2.76-1.1 1.81-0.7 2.84-1.09 1.73-0.64 2.94-1.07 1.62-0.57 3.09-1.07 1.42-0.47 3.3-1.09 1.05-0.33q10.68-3.4 21.61-6.05l0.87-0.21 3.57-0.83 1.29-0.29 3.39-0.73 1.48-0.31 3.3-0.66 1.59-0.31 3.25-0.59 1.67-0.3 3.21-0.54 1.72-0.28 3.19-0.48 1.76-0.25 3.19-0.43 1.76-0.22 3.21-0.38 1.75-0.19 3.24-0.34 1.72-0.16 3.29-0.29 1.64-0.12 3.39-0.24 1.47-0.09 3.57-0.2h1c1.32-0.06 2.65-0.12 4-0.16z m-162.1 114.37q1.57-2.42 3.21-4.79l0.35-0.51q1.57-2.26 3.19-4.46l0.49-0.67q1.61-2.18 3.27-4.3l0.5-0.64q1.7-2.15 3.44-4.26l0.38-0.45q3.74-4.47 7.72-8.71l0.19-0.2q1.94-2.07 3.94-4.07l0.4-0.4q2-2 4-3.87l0.44-0.41q2-1.92 4.12-3.79l0.32-0.28q6.65-5.92 13.76-11.23l0.16-0.12q2.32-1.73 4.69-3.39l0.28-0.2q2.36-1.65 4.77-3.24l0.21-0.14a207.15 207.15 0 0 1 20.66-11.95l0.16-0.08q2.62-1.32 5.27-2.56l0.19-0.09a206 206 0 0 1 22.16-8.86h0.14q2.77-0.92 5.57-1.75l0.29-0.09q2.79-0.83 5.6-1.58l0.22-0.06q8.64-2.3 17.5-3.84h0.25q2.82-0.49 5.66-0.89l0.5-0.07q2.79-0.39 5.6-0.71l0.53-0.06q2.84-0.31 5.7-0.55h0.31q3-0.24 5.92-0.39v90.71l-0.69 0.07-1.29 0.13-2.2 0.26-1.36 0.18-2.17 0.33-1.3 0.21c-0.88 0.15-1.75 0.31-2.62 0.49l-1.29 0.26c-0.92 0.19-1.83 0.39-2.74 0.6l-1.47 0.36-1.86 0.47-1.59 0.44-1.71 0.49-1.63 0.5-1.65 0.54-1.63 0.54-1.69 0.61q-1.42 0.52-2.83 1.08l-1.6 0.64-1.68 0.72-1.44 0.63-1.69 0.78-1.39 0.66-1.68 0.83-1.35 0.7-1.67 0.88-1.27 0.71q-1.57 0.87-3.11 1.8l-1.23 0.74-1.6 1-1.27 0.82-1.55 1-1.27 0.88-1.51 1.07-1.26 0.93-1.5 1.02-1.33 1q-1.2 1-2.38 1.94l-1.38 1.16-1.3 1.15-1.27 1.15-1.27 1.19-1.25 1.2-1.22 1.2-1.27 1.3-1.12 1.17c-0.52 0.55-1 1.12-1.54 1.69l-1.33 1.55c-0.52 0.59-1 1.19-1.53 1.79l-1 1.19c-0.41 0.51-0.82 1-1.22 1.53l-1 1.27-1.15 1.54-0.93 1.29-0.35 0.48z m266.05 45.26a115.27 115.27 0 0 0-83.61-48.32v-90.71a206.31 206.31 0 0 1 162.09 93.77z m20.87 62.38v-1.09c0-0.8-0.07-1.6-0.12-2.41 0-0.41-0.06-0.83-0.09-1.24q-0.08-1.16-0.19-2.31c0-0.4-0.07-0.79-0.11-1.19-0.09-0.85-0.19-1.7-0.3-2.55 0-0.3-0.07-0.6-0.11-0.9q-0.47-3.5-1.16-7c-0.05-0.26-0.11-0.52-0.16-0.77q-0.28-1.35-0.59-2.69l-0.22-0.91q-0.32-1.32-0.66-2.62l-0.22-0.81q-0.41-1.51-0.86-3l-0.1-0.35q-1.06-3.48-2.35-6.9l-0.15-0.4q-0.56-1.47-1.16-2.92l-0.26-0.61q-0.59-1.4-1.21-2.78l-0.24-0.53-0.36-0.81 78.46-45.26c0.31 0.6 0.62 1.19 0.92 1.79s0.75 1.49 1.11 2.24q0.88 1.79 1.71 3.6c0.35 0.76 0.71 1.52 1.05 2.29 0.55 1.22 1.08 2.45 1.61 3.69 0.32 0.75 0.65 1.5 1 2.25 0.54 1.31 1.06 2.63 1.57 3.95 0.26 0.68 0.54 1.36 0.8 2 0.62 1.63 1.2 3.28 1.78 4.93 0.13 0.37 0.27 0.74 0.4 1.12q1 3 2 6.1c0.18 0.58 0.34 1.17 0.51 1.76 0.43 1.46 0.86 2.92 1.26 4.39 0.22 0.79 0.41 1.58 0.62 2.38 0.33 1.27 0.66 2.55 1 3.83 0.21 0.86 0.4 1.72 0.59 2.59 0.28 1.22 0.55 2.44 0.8 3.67 0.18 0.89 0.36 1.79 0.53 2.68q0.35 1.81 0.67 3.62 0.24 1.36 0.45 2.72 0.29 1.82 0.55 3.64c0.13 0.91 0.25 1.81 0.37 2.72 0.16 1.23 0.3 2.47 0.43 3.71 0.1 0.89 0.2 1.77 0.28 2.66 0.12 1.29 0.22 2.58 0.32 3.87 0.06 0.84 0.14 1.67 0.19 2.51 0.09 1.43 0.15 2.85 0.21 4.28 0 0.7 0.07 1.41 0.1 2.11q0.1 3.2 0.11 6.4t-0.11 6.4c0 0.71-0.07 1.41-0.1 2.11-0.06 1.43-0.12 2.86-0.21 4.28-0.05 0.84-0.13 1.67-0.19 2.51-0.1 1.29-0.2 2.58-0.32 3.87-0.08 0.89-0.19 1.77-0.28 2.66-0.13 1.24-0.28 2.47-0.43 3.71-0.12 0.91-0.24 1.81-0.37 2.72q-0.26 1.82-0.55 3.64-0.22 1.36-0.45 2.72-0.32 1.81-0.67 3.62c-0.17 0.9-0.35 1.79-0.53 2.68-0.25 1.22-0.52 2.45-0.8 3.67-0.19 0.86-0.38 1.73-0.59 2.59-0.31 1.28-0.64 2.55-1 3.83-0.21 0.79-0.4 1.59-0.62 2.38-0.4 1.47-0.83 2.93-1.26 4.39-0.17 0.59-0.33 1.17-0.51 1.76q-0.94 3.06-2 6.1c-0.13 0.37-0.27 0.74-0.4 1.12-0.57 1.65-1.16 3.29-1.78 4.93-0.26 0.68-0.53 1.36-0.8 2-0.51 1.32-1 2.64-1.57 3.95-0.31 0.75-0.64 1.5-1 2.25-0.53 1.23-1.06 2.46-1.61 3.69-0.34 0.77-0.7 1.53-1.05 2.29q-0.84 1.81-1.71 3.6-0.55 1.12-1.11 2.24c-0.3 0.6-0.61 1.19-0.92 1.79l-0.12-0.07L616 560.25c0.14-0.29 0.26-0.59 0.4-0.88l0.16-0.35q0.67-1.48 1.29-3l0.2-0.48q0.63-1.52 1.22-3.06l0.11-0.29q1.29-3.44 2.37-6.94l0.09-0.31q0.46-1.52 0.88-3l0.21-0.8q0.35-1.31 0.66-2.63l0.22-0.91q0.31-1.34 0.58-2.68c0.05-0.26 0.11-0.52 0.16-0.78q0.69-3.46 1.16-7c0-0.3 0.07-0.61 0.11-0.91q0.16-1.27 0.3-2.53c0-0.4 0.08-0.8 0.12-1.2q0.11-1.15 0.19-2.31c0-0.41 0.06-0.83 0.09-1.24 0-0.8 0.09-1.6 0.12-2.4v-1.09c0-1.16 0.06-2.32 0.06-3.47s-0.01-2.31-0.04-3.47z m57.61 114.6a206.31 206.31 0 0 1-162.09 93.77v-90.7a115.24 115.24 0 0 0 83.61-48.33z m17.64 10.18l78.57 45.33c-55.85 89.51-153.27 145.77-258.31 149.2v-90.59c72.84-3.33 140.18-42.29 179.75-103.95z m10.21-17.6l0.11-0.22q1.4-2.69 2.72-5.42l0.38-0.78q1.3-2.7 2.52-5.42l0.35-0.79q1.23-2.76 2.39-5.55l0.25-0.62q1.19-2.9 2.3-5.84l0.06-0.15q1.12-3 2.16-6l0.12-0.35q1-2.91 1.91-5.85l0.23-0.74q0.88-2.84 1.68-5.71l0.25-0.89q0.79-2.85 1.5-5.71l0.21-0.86q0.71-2.91 1.35-5.84l0.13-0.64q0.65-3.06 1.22-6.15v-0.09q0.57-3.09 1-6.2l0.08-0.52q0.45-3 0.82-6c0-0.29 0.07-0.58 0.11-0.87q0.35-2.92 0.62-5.84l0.09-1q0.26-2.92 0.45-5.84c0-0.31 0-0.62 0.05-0.93q0.17-3 0.27-6v-0.66c0.06-2.1 0.1-4.19 0.1-6.29s0-4.2-0.1-6.29v-0.66q-0.09-3-0.27-6c0-0.31 0-0.62-0.05-0.93q-0.18-2.93-0.45-5.84l-0.09-1q-0.27-2.93-0.62-5.84c0-0.29-0.07-0.58-0.11-0.87q-0.37-3-0.82-6l-0.08-0.53q-0.48-3.11-1-6.2v-0.09q-0.57-3.08-1.22-6.15l-0.13-0.64q-0.63-2.93-1.35-5.84l-0.21-0.86q-0.71-2.87-1.5-5.71l-0.25-0.89q-0.8-2.87-1.68-5.71l-0.23-0.74q-0.92-2.93-1.91-5.85l-0.12-0.35q-1-3-2.16-6l-0.06-0.15q-1.11-2.93-2.3-5.84l-0.25-0.62q-1.15-2.79-2.39-5.55l-0.35-0.79q-1.23-2.73-2.52-5.42l-0.38-0.78q-1.32-2.72-2.72-5.42l-0.11-0.22L790.69 363q2.48 4.61 4.8 9.3l0.28 0.57q1 2 1.91 3.94l0.48 1q0.83 1.76 1.64 3.52l0.59 1.31q0.73 1.63 1.45 3.26l0.65 1.51q0.67 1.55 1.32 3.1l0.68 1.64q0.62 1.49 1.22 3l0.69 1.75q0.57 1.46 1.13 2.92l0.69 1.83q0.54 1.43 1.06 2.86l0.68 1.89q0.51 1.42 1 2.84l0.66 1.92c0.32 0.95 0.63 1.9 0.95 2.85 0.21 0.64 0.42 1.29 0.63 1.93 0.31 1 0.61 1.92 0.9 2.89 0.2 0.64 0.4 1.27 0.59 1.91 0.3 1 0.6 2 0.89 3 0.17 0.6 0.35 1.2 0.53 1.79 0.32 1.13 0.63 2.27 0.95 3.4 0.13 0.48 0.27 1 0.4 1.43q0.65 2.4 1.25 4.82c0.12 0.46 0.23 0.93 0.34 1.39 0.29 1.15 0.57 2.31 0.84 3.46 0.16 0.67 0.3 1.34 0.46 2 0.22 1 0.44 1.91 0.65 2.87 0.16 0.73 0.31 1.46 0.46 2.19 0.19 0.9 0.38 1.8 0.56 2.7s0.3 1.52 0.45 2.28 0.34 1.75 0.5 2.63l0.42 2.32c0.14 0.77 0.31 1.74 0.46 2.61s0.26 1.56 0.38 2.34 0.28 1.74 0.41 2.62 0.23 1.57 0.35 2.35 0.25 1.74 0.37 2.61 0.21 1.57 0.31 2.36l0.33 2.63c0.11 0.88 0.19 1.56 0.27 2.35s0.19 1.77 0.29 2.66 0.16 1.55 0.24 2.33 0.17 1.8 0.25 2.7 0.13 1.53 0.2 2.29l0.21 2.76c0.05 0.75 0.11 1.49 0.16 2.24 0.06 0.95 0.11 1.9 0.17 2.85 0 0.72 0.08 1.45 0.12 2.17 0 1 0.08 2 0.12 3 0 0.68 0.06 1.36 0.08 2 0 1.11 0.06 2.21 0.08 3.32V518.63c0 1.11 0 2.21-0.08 3.32 0 0.68-0.05 1.36-0.08 2 0 1-0.08 2-0.12 3 0 0.73-0.08 1.45-0.12 2.17-0.05 0.95-0.1 1.9-0.17 2.85 0 0.75-0.1 1.49-0.16 2.24-0.07 0.92-0.13 1.84-0.21 2.76-0.06 0.76-0.13 1.53-0.2 2.29s-0.16 1.8-0.25 2.7-0.15 1.55-0.24 2.33-0.19 1.77-0.29 2.66-0.18 1.56-0.27 2.35-0.21 1.75-0.33 2.63-0.21 1.57-0.31 2.36-0.24 1.74-0.37 2.61-0.23 1.57-0.35 2.35-0.27 1.75-0.41 2.62-0.25 1.56-0.38 2.34-0.3 1.74-0.46 2.61-0.27 1.55-0.42 2.32-0.33 1.76-0.5 2.63-0.29 1.52-0.45 2.28-0.37 1.8-0.56 2.7c-0.15 0.73-0.3 1.46-0.46 2.19-0.21 1-0.43 1.91-0.65 2.87-0.15 0.67-0.3 1.34-0.46 2-0.27 1.16-0.56 2.31-0.84 3.46-0.11 0.46-0.22 0.93-0.34 1.39q-0.61 2.41-1.25 4.82c-0.13 0.48-0.27 1-0.4 1.43-0.31 1.14-0.62 2.27-0.95 3.4-0.17 0.6-0.35 1.19-0.53 1.79-0.29 1-0.59 2-0.89 3-0.19 0.64-0.39 1.27-0.59 1.91-0.3 1-0.6 1.93-0.91 2.89-0.21 0.65-0.42 1.29-0.63 1.93-0.31 1-0.62 1.9-0.95 2.85l-0.66 1.92q-0.49 1.42-1 2.84l-0.68 1.89q-0.52 1.43-1.06 2.86l-0.69 1.83q-0.56 1.46-1.13 2.92l-0.69 1.75q-0.6 1.5-1.22 3l-0.68 1.64q-0.65 1.55-1.32 3.1l-0.65 1.51q-0.71 1.63-1.45 3.26l-0.59 1.31q-0.81 1.77-1.64 3.52l-0.48 1q-0.94 2-1.91 3.94l-0.28 0.57q-2.32 4.69-4.8 9.3zM522.17 196.18c105 3.42 202.45 59.69 258.31 149.19l-78.57 45.33C662.34 329 595 290.08 522.17 286.75v-90.57zM501.83 85.29v90.54h-0.28l-3.47 0.13-1.93 0.08-3.36 0.18-2 0.12-3.3 0.23-2.07 0.16-3.25 0.28-2.1 0.19-3.23 0.33-2.1 0.23-3.22 0.38-2.09 0.26-3.22 0.43-2.06 0.29-3.24 0.48-2 0.32-3.27 0.54-1.92 0.34-3.34 0.61-1.8 0.35-3.43 0.68-1.61 0.34-3.61 0.77-1.18 0.27q-9.54 2.15-18.91 4.84h-0.11c-1.31 0.38-2.62 0.77-3.93 1.16l-1.16 0.35-3.55 1.11-1.51 0.48-3.36 1.11-1.67 0.56-3.24 1.12-1.76 0.62-3.15 1.15-1.82 0.67-3.09 1.18-1.84 0.72-3 1.22-1.85 0.75-3 1.26-1.83 0.78-3 1.31-1.82 0.81-3 1.35-1.78 0.83-3 1.42-1.71 0.83-3 1.48-1.62 0.82-3.09 1.57-1.45 0.76-3.22 1.7-1.09 0.59q-8 4.33-15.73 9.08l-1.2 0.73-3.01 1.82-1.61 1-2.64 1.8-1.81 1.2-2.55 1.71-1.85 1.26-2.46 1.71-1.89 1.32-2.39 1.71-1.93 1.4-2.32 1.72-1.95 1.46-2.25 1.71-2 1.52-2.21 1.74-2 1.58-2.15 1.75-2 1.64-1.99 1.77-2 1.7-2 1.76-2 1.77-2 1.76-2 1.86-1.88 1.73-2.12 2-1.74 1.65c-0.79 0.76-1.57 1.53-2.35 2.29l-1.46 1.43q-1.88 1.87-3.73 3.76l-0.92 1q-1.4 1.45-2.79 2.91l-1.41 1.38c-0.76 0.82-1.53 1.64-2.29 2.46l-1.47 1.63c-0.71 0.79-1.42 1.57-2.12 2.36l-1.5 1.71-2 2.34-1.5 1.77-2 2.35-1.49 1.81-1.92 2.36-1.47 1.85-1.88 2.39-1.45 1.88-1.84 2.42-1.42 1.9-1.8 2.46-1.39 1.92-1.77 2.5-1.36 1.94-1.74 2.55-1.32 1.95q-0.87 1.29-1.72 2.6l-1.28 1.95c-0.57 0.89-1.14 1.78-1.7 2.67l-1.22 1.93-0.3 0.48-78.43-45.24C223.19 166.27 357.39 88.78 501.83 85.29zM84.83 512a425.68 425.68 0 0 1 52.42-204.45l78.29 45.16 0.14 0.08a334.92 334.92 0 0 0 0 318.41l-0.14 0.08-78.29 45.16A425.68 425.68 0 0 1 84.83 512z m417 426.72C357.4 935.22 223.2 857.73 147.44 734l78.43-45.24 0.29 0.46 1.31 2.08c0.53 0.83 1.06 1.67 1.59 2.5l1.41 2.16 1.56 2.36 1.49 2.2 1.55 2.27 1.56 2.22 1.55 2.18 1.62 2.24 1.55 2.11 1.68 2.25 1.55 2 1.74 2.25 1.55 2 1.8 2.26 1.55 1.9 1.86 2.27 1.53 1.82 1.94 2.28 1.5 1.73c0.67 0.77 1.35 1.55 2 2.31l1.44 1.61c0.71 0.79 1.42 1.59 2.14 2.37L265 740c0.79 0.85 1.57 1.7 2.37 2.54l0.63 0.66q4.65 4.89 9.48 9.57l0.93 0.91c0.85 0.81 1.7 1.62 2.55 2.42l1.31 1.24c0.81 0.76 1.64 1.51 2.46 2.26l1.46 1.33 2.42 2.16 1.54 1.37 2.41 2.09 1.61 1.38 2.42 2 1.65 1.37 2.43 2 1.69 1.35 2.46 1.94 1.7 1.32 2.49 1.91 1.71 1.29 2.53 1.87 1.71 1.25 2.58 1.85 1.71 1.2 2.63 1.83 1.67 1.14 2.71 1.82 1.6 1 2.83 1.84 1.44 0.91c1 0.64 2 1.28 3 1.91l1 0.63q7.78 4.78 15.81 9.13l1.18 0.64 3.11 1.64 1.57 0.83 3 1.51 1.76 0.89 2.89 1.42 1.86 0.9 2.87 1.35 1.92 0.89 2.9 1.34 2 0.88 2.85 1.24 2 0.85 2.87 1.19 2 0.82 2.89 1.15 2 0.78 2.92 1.11 2 0.75 3 1.07 2 0.7 3 1 1.93 0.65 3.1 1 1.84 0.58 3.23 1 1.59 0.47 3.5 1 0.86 0.24q6.71 1.91 13.51 3.55l0.73 0.18 3.61 0.83 1.59 0.36 3.36 0.72 1.86 0.39 3.24 0.64 2 0.39 3.18 0.58 2.07 0.37 3.16 0.52 2.11 0.34 3.15 0.47 2.13 0.3 3.15 0.42 2.16 0.27 3.16 0.37 2.15 0.24 3.19 0.32 2.13 0.2 3.22 0.28 2.09 0.16 3.28 0.23 2 0.12 3.36 0.18 1.92 0.08 3.48 0.13h0.28z m0-201.23v90.34c-1.33 0-2.65-0.1-4-0.16h-1l-3.57-0.2-1.47-0.09-3.39-0.24-1.64-0.12-3.29-0.29-1.72-0.16-3.23-0.33-1.76-0.19-3.2-0.38-1.77-0.22-3.19-0.43-1.76-0.25-3.18-0.48-1.73-0.28-3.2-0.53-1.68-0.3-3.23-0.59-1.61-0.31-3.29-0.66-1.48-0.31-3.44-0.81-1.29-0.29-3.57-0.83-0.87-0.21q-10.93-2.65-21.62-6.06l-1-0.33-3.29-1.09-1.43-0.48-3.07-1.07-1.63-0.57-2.93-1.07-1.74-0.65-2.83-1.08-1.82-0.71-2.75-1.1-1.87-0.76-2.68-1.12-1.91-0.81-2.62-1.14-1.94-0.86-2.57-1.16-2-0.91-2.49-1.2-2-1-2.45-1.2-2-1-2.39-1.22-2.09-1.1-2.29-1.21-2.24-1.23-2.1-1.15-3-1.69-2.2-1.27c-1.12-0.65-2.25-1.31-3.36-2l-1.55-0.94-2.72-1.66-1.64-1-2.59-1.64-1.65-1.08-2.54-1.61-1.64-1.1-2.51-1.7-1.61-1.12-2.51-1.78-1.57-1.12-2.52-1.83-1.51-1.12-2.54-1.91-1.45-1.1-2.57-2-1.37-1.08-2.61-2.14-1.26-1-2.73-2.26-1.1-0.93q-1.45-1.23-2.89-2.48l-0.9-0.78q-1.6-1.4-3.18-2.82l-0.56-0.5q-9.5-8.56-18.33-17.9l-0.14-0.15q-1.67-1.77-3.31-3.56l-0.41-0.45q-1.51-1.65-3-3.33l-0.54-0.62q-1.41-1.6-2.8-3.22l-0.62-0.72q-1.35-1.58-2.68-3.18l-0.64-0.78q-1.31-1.59-2.6-3.2l-0.64-0.8q-1.29-1.61-2.56-3.25l-0.61-0.79q-1.28-1.66-2.54-3.33l-0.56-0.75q-1.29-1.73-2.55-3.47l-0.48-0.66q-1.32-1.83-2.62-3.69l-0.35-0.49q-1.39-2-2.75-4l-0.15-0.22q-3-4.47-5.87-9.06l78.58-45.33q1.79 2.79 3.66 5.51l0.2 0.29q1.85 2.69 3.77 5.32l0.2 0.27q2 2.67 4 5.27v0.06q4.16 5.34 8.6 10.4 2.14 2.43 4.34 4.79l0.32 0.35q2.13 2.28 4.33 4.5l0.44 0.45q2.18 2.19 4.42 4.33l0.43 0.41q2.28 2.16 4.61 4.25l0.25 0.22q4.83 4.32 9.89 8.34l0.3 0.24q2.41 1.91 4.86 3.75l0.6 0.45q2.39 1.78 4.82 3.5l0.72 0.51q2.42 1.7 4.89 3.33l0.7 0.46q2.51 1.65 5.07 3.24l0.5 0.3q2.66 1.64 5.36 3.2h0.06q2.68 1.55 5.41 3l0.63 0.34q2.58 1.39 5.2 2.71l0.91 0.46q2.56 1.28 5.14 2.49l1 0.47q2.58 1.2 5.19 2.33l1 0.42q2.66 1.14 5.36 2.21l0.77 0.3q2.68 1.05 5.39 2l0.51 0.19c1.83 0.66 3.67 1.29 5.52 1.91l1 0.33q2.67 0.87 5.37 1.68l1.24 0.37q2.64 0.78 5.31 1.49l1.32 0.35q2.67 0.69 5.35 1.33l1.28 0.29c1.83 0.42 3.66 0.82 5.5 1.19l1 0.2q2.63 0.52 5.28 1l1 0.17c1.82 0.31 3.65 0.58 5.48 0.84l1.29 0.19q2.71 0.37 5.44 0.67l1.5 0.16q2.68 0.28 5.38 0.5l1.56 0.12q2.7 0.2 5.42 0.33h0.56z m0-20.6q-3-0.15-5.92-0.39h-0.31q-2.86-0.23-5.7-0.55l-0.53-0.06q-2.81-0.32-5.6-0.71l-0.5-0.07q-2.84-0.41-5.66-0.89h-0.25q-8.85-1.54-17.5-3.84l-0.22-0.06q-2.81-0.75-5.6-1.58l-0.29-0.09q-2.8-0.84-5.57-1.75h-0.14a206.1 206.1 0 0 1-22.24-8.84l-0.19-0.09q-2.65-1.24-5.27-2.56l-0.16-0.08a207.05 207.05 0 0 1-20.66-11.95l-0.21-0.14q-2.41-1.59-4.77-3.24l-0.28-0.2q-2.37-1.66-4.69-3.39l-0.16-0.12q-7.11-5.31-13.76-11.23l-0.32-0.28q-2.09-1.86-4.12-3.79l-0.44-0.41q-2-1.91-4-3.87l-0.4-0.4q-2-2-3.94-4.07l-0.19-0.2q-4-4.24-7.72-8.71l-0.38-0.45q-1.75-2.1-3.44-4.26l-0.5-0.64q-1.66-2.13-3.27-4.3l-0.49-0.67q-1.62-2.21-3.19-4.46l-0.35-0.51q-1.63-2.37-3.21-4.79l78.47-45.26 0.31 0.43 1 1.42 1 1.4 1.06 1.38 1.11 1.38c0.36 0.44 0.71 0.88 1.07 1.32s0.86 1 1.29 1.51q0.9 1 1.82 2.06c0.43 0.48 0.86 1 1.3 1.42l1.21 1.26 1.18 1.21 1.27 1.26 1.19 1.14 1.31 1.23 1.21 1.09 1.35 1.2 1.26 1.06q1.27 1.06 2.56 2.09l1.24 1 1.5 1.12 1.23 0.91 1.53 1.09 1.25 0.86 1.57 1.05 1.26 0.81 1.61 1 1.23 0.73q1.54 0.92 3.11 1.8l1.28 0.71 1.67 0.88 1.36 0.7 1.67 0.82 1.4 0.66 1.68 0.77 1.45 0.63 1.68 0.72 1.63 0.65q1.39 0.55 2.79 1.06l1.72 0.62 1.61 0.54 1.66 0.54 1.62 0.49 1.71 0.5 1.58 0.44 1.87 0.48 1.45 0.36c0.91 0.21 1.83 0.41 2.75 0.6l1.28 0.26a111 111 0 0 0 2.63 0.49l1.3 0.21 2.18 0.33 1.36 0.18 2.2 0.26 1.29 0.13 0.69 0.07zM512 606.3a94.3 94.3 0 1 1 38.94-180.11q2.78 1.27 5.48 2.71 1.35 0.72 2.67 1.49a94.77 94.77 0 0 1 34.59 34.51 93.67 93.67 0 0 1 0 94.19A94.73 94.73 0 0 1 512 606.3z m10.17 332.41v-90.54c112.28-3.44 216.45-63.6 275.94-159.37l78.45 45.2C800.8 857.73 666.6 935.22 522.17 938.71z m364.59-222.27l-78.44-45.24v-0.06c0.65-1.21 1.29-2.42 1.93-3.64l0.59-1.12c0.57-1.09 1.12-2.19 1.68-3.29l0.77-1.52c0.51-1 1-2 1.51-3.07l0.86-1.77q0.7-1.46 1.38-2.92l0.91-2q0.64-1.4 1.27-2.81l0.94-2.1q0.6-1.36 1.18-2.72l0.95-2.23q0.56-1.32 1.1-2.64 0.48-1.16 0.95-2.33t1-2.59q0.48-1.21 0.94-2.43c0.32-0.84 0.64-1.68 1-2.52s0.63-1.69 0.93-2.54 0.6-1.64 0.89-2.46 0.62-1.77 0.93-2.65 0.55-1.58 0.82-2.37 0.62-1.87 0.93-2.81c0.25-0.75 0.5-1.5 0.74-2.25 0.32-1 0.64-2 1-3 0.21-0.68 0.43-1.36 0.64-2 0.37-1.2 0.72-2.41 1.07-3.61 0.15-0.5 0.3-1 0.44-1.5q0.74-2.57 1.43-5.15l0.2-0.78q0.58-2.19 1.14-4.39c0.14-0.57 0.28-1.14 0.42-1.72 0.29-1.16 0.57-2.32 0.84-3.48 0.16-0.66 0.3-1.32 0.45-2 0.25-1.07 0.49-2.15 0.73-3.23 0.16-0.71 0.3-1.42 0.45-2.13 0.22-1 0.44-2.06 0.65-3.1 0.15-0.74 0.29-1.48 0.44-2.22 0.2-1 0.39-2 0.58-3 0.14-0.76 0.28-1.52 0.41-2.28q0.27-1.49 0.52-3l0.38-2.31q0.24-1.49 0.47-3 0.18-1.17 0.35-2.33 0.22-1.48 0.42-3 0.16-1.18 0.31-2.36 0.19-1.48 0.37-3l0.28-2.36q0.17-1.49 0.32-3l0.24-2.36c0.1-1 0.19-2 0.27-3 0.07-0.78 0.14-1.56 0.2-2.35 0.08-1 0.15-2 0.23-3 0.06-0.77 0.11-1.55 0.16-2.33 0.07-1 0.12-2.06 0.18-3.09 0-0.75 0.09-1.51 0.12-2.26 0.05-1.08 0.09-2.16 0.13-3.24 0-0.71 0.06-1.42 0.08-2.12 0-1.19 0.06-2.39 0.09-3.58v-1.79-5.37-5.37-1.79c0-1.19-0.05-2.39-0.09-3.58 0-0.71-0.06-1.42-0.08-2.12 0-1.08-0.08-2.16-0.13-3.24 0-0.75-0.08-1.51-0.12-2.26-0.06-1-0.11-2.06-0.18-3.09 0-0.77-0.11-1.55-0.16-2.32-0.07-1-0.14-2-0.23-3-0.06-0.78-0.13-1.56-0.2-2.35l-0.27-3-0.24-2.36q-0.15-1.49-0.32-3-0.13-1.18-0.28-2.36-0.18-1.48-0.37-3-0.15-1.18-0.31-2.36-0.2-1.48-0.42-3-0.17-1.17-0.35-2.33-0.23-1.49-0.47-3c-0.12-0.77-0.25-1.54-0.38-2.31-0.17-1-0.34-2-0.52-3-0.14-0.76-0.27-1.52-0.41-2.28-0.19-1-0.38-2-0.58-3-0.14-0.74-0.29-1.48-0.44-2.22-0.21-1-0.43-2.06-0.65-3.09l-0.45-2.13c-0.24-1.08-0.48-2.15-0.73-3.22-0.15-0.66-0.3-1.33-0.45-2-0.27-1.16-0.56-2.32-0.84-3.48l-0.42-1.72q-0.55-2.2-1.14-4.39l-0.2-0.78q-0.7-2.58-1.43-5.15c-0.14-0.5-0.3-1-0.44-1.5-0.35-1.21-0.7-2.41-1.07-3.61-0.21-0.68-0.43-1.37-0.64-2-0.31-1-0.63-2-1-3-0.24-0.75-0.49-1.5-0.74-2.25-0.31-0.94-0.61-1.87-0.93-2.81s-0.55-1.58-0.82-2.37-0.61-1.77-0.93-2.65-0.59-1.64-0.89-2.46-0.62-1.69-0.93-2.54-0.64-1.68-1-2.52-0.62-1.62-0.94-2.43-0.68-1.73-1-2.59-0.63-1.56-0.95-2.33-0.73-1.76-1.1-2.64l-0.95-2.23-1.18-2.72-0.94-2.1q-0.63-1.41-1.27-2.81l-0.91-2q-0.68-1.46-1.38-2.92l-0.86-1.77c-0.5-1-1-2-1.51-3.07l-0.77-1.52c-0.55-1.1-1.11-2.19-1.68-3.29l-0.59-1.12c-0.64-1.22-1.28-2.43-1.93-3.64v-0.06l78.44-45.24a424.94 424.94 0 0 1 0 408.9z" fill="#8a8a8a" p-id="6009"></path><path d="M325.6 404.46L229.45 349a324.77 324.77 0 0 0 0 326l96.14-55.47a213.36 213.36 0 0 1 0-215.07z" fill="#8a8a8a" p-id="6010"></path><path d="M225.75 688.87l-5.1-8.77a335 335 0 0 1 0-336.21l5.1-8.77 113.77 65.63-5.12 8.82a203.15 203.15 0 0 0 0 204.86l5.12 8.82zM233.29 363a314.62 314.62 0 0 0 0 298.07l78.59-45.33a223.31 223.31 0 0 1 0-207.4z" fill="#8a8a8a" p-id="6011"></path><path d="M698.4 619.53C661.09 683.85 591.6 727.31 512 727.31v110.85c120.58 0 226-65.73 282.54-163.16z" fill="#8a8a8a" p-id="6012"></path><path d="M512 848.33h-10.17V717.14H512c72.8 0 140.85-39.35 177.6-102.72l5.1-8.77 113.76 65.63-5.12 8.82C743.15 783.87 631.51 848.33 512 848.33z m10.17-111.08v90.57c105-3.43 202.46-59.69 258.31-149.19l-78.57-45.33C662.34 694.95 595 733.91 522.17 737.25z" fill="#8a8a8a" p-id="6013"></path><path d="M512 185.84v110.84c79.6 0 149.09 43.47 186.4 107.78L794.54 349C738 251.56 632.58 185.84 512 185.84z" fill="#8a8a8a" p-id="6014"></path><path d="M694.7 418.34l-5.1-8.77C652.85 346.21 584.8 306.85 512 306.85h-10.17V175.67H512c119.51 0 231.15 64.46 291.34 168.22l5.12 8.82z m-172.53-131.6c72.8 3.34 140.17 42.3 179.74 104l78.58-45.33c-55.85-89.5-153.27-145.75-258.31-149.18z" fill="#8a8a8a" p-id="6015"></path></svg>