<?xml version="1.0" standalone="no"?><!DOCTYPE svg PUBLIC "-//W3C//DTD SVG 1.1//EN" "http://www.w3.org/Graphics/SVG/1.1/DTD/svg11.dtd"><svg t="1604911239422" class="icon" viewBox="0 0 1024 1024" version="1.1" xmlns="http://www.w3.org/2000/svg" p-id="6724" xmlns:xlink="http://www.w3.org/1999/xlink" width="32" height="32"><defs><style type="text/css"></style></defs><path d="M160 896a32 32 0 0 1-32-32V416a32 32 0 0 1 64 0v448a32 32 0 0 1-32 32zM512 896a32 32 0 0 1-32-32V288a32 32 0 0 1 64 0v576a32 32 0 0 1-32 32zM864 896a32 32 0 0 1-32-32V160a32 32 0 0 1 64 0v704a32 32 0 0 1-32 32z" fill="#4A8BFE" p-id="6725"></path></svg>