<?xml version="1.0" standalone="no"?><!DOCTYPE svg PUBLIC "-//W3C//DTD SVG 1.1//EN" "http://www.w3.org/Graphics/SVG/1.1/DTD/svg11.dtd"><svg t="1604911579132" class="icon" viewBox="0 0 1024 1024" version="1.1" xmlns="http://www.w3.org/2000/svg" p-id="10262" xmlns:xlink="http://www.w3.org/1999/xlink" width="32" height="32"><defs><style type="text/css"></style></defs><path d="M511.836 933.875c-56.86 0-112.018-11.18-163.98-33.115-50.152-21.19-95.193-51.643-133.952-90.296-38.653-38.652-69.106-83.693-90.296-133.952-21.935-51.962-33.115-107.12-33.115-163.98 0-56.86 11.18-112.017 33.115-163.98 21.19-50.152 51.643-95.193 90.296-133.952 38.652-38.652 83.693-69.105 133.952-90.295 51.856-21.935 107.12-33.115 163.98-33.115s112.017 11.18 163.98 33.115c50.152 21.19 95.193 51.643 133.952 90.295 38.652 38.653 69.105 83.694 90.295 133.953 21.935 51.962 33.115 107.119 33.115 163.98 0 56.86-11.18 112.017-33.115 163.98-21.19 50.151-51.643 95.192-90.295 133.951-38.653 38.653-83.694 69.106-133.953 90.296-51.962 21.935-107.119 33.115-163.98 33.115z m0-808.718c-213.6 0-387.376 173.776-387.376 387.375s173.776 387.376 387.376 387.376S899.21 726.132 899.21 512.532 725.435 125.157 511.836 125.157z m0 0" fill="#108CEE" p-id="10263"></path><path d="M705.31 458.44L631.945 600.38h-20.763l69.531-133.953c-45.893 22.255-82.202 78.796-150.882 84.972-4.898 14.162-12.139 25.236-21.616 33.009-9.796 7.986-22.041 12.032-36.948 12.032-19.593 0-35.032-7.028-46.213-21.083-12.884-16.292-19.592-42.592-20.125-78.69-36.522-29.068-72.726-55.901-121.6-41.314L280.24 470.9c12.245-8.519 25.023-12.778 38.44-12.778 17.782 0 32.689 6.176 44.934 18.421 12.245 12.245 18.315 28.11 18.315 47.384 0 18.42-5.324 34.286-16.079 47.703-12.99 16.504-30.88 24.703-53.347 24.703-18.527 0-33.54-5.217-45.254-15.546s-18.42-24.064-20.018-41.208l26.194-2.236c1.917 12.778 6.495 22.361 13.523 28.75s15.546 9.69 25.555 9.69c12.033 0 22.148-4.579 30.454-13.63 8.305-9.05 12.458-21.083 12.458-36.097 0-14.268-4.046-25.448-12.032-33.647-7.986-8.2-18.421-12.352-31.412-12.352-8.092 0-15.333 1.81-21.722 5.43-6.495 3.62-11.606 8.412-15.227 14.162l-23.425-3.088 5.75-30.24c-20.445 11.393-90.402 43.55-145.878 68.147 0 0 17.888 367.144 400.366 370.658 0 0 397.065 0 400.685-403.88-58.458-59.309-174.415-48.022-207.21-42.805z m68.254 127.99c-8.412 9.264-18.953 13.949-31.411 13.949-12.246 0-22.574-4.579-30.667-13.843-8.199-9.157-12.245-23-12.245-41.42 0-14.588 3.62-26.94 10.967-37.056 7.348-10.115 17.89-15.226 31.945-15.226 12.777 0 23.319 4.578 31.73 13.629 8.413 9.157 12.565 22.467 12.565 40.143-0.213 17.356-4.472 30.56-12.884 39.824z m0 0" fill="#108CEE" p-id="10264"></path><path d="M742.685 510.19c-6.282 0-11.5 2.662-15.546 8.092-4.153 5.324-6.176 15.227-6.176 29.495 0 12.991 2.13 22.148 6.282 27.472 4.153 5.324 9.264 8.093 15.44 8.093 6.389 0 11.606-2.662 15.759-8.093 4.153-5.324 6.176-15.12 6.176-29.388 0-13.097-2.13-22.361-6.282-27.685-4.26-5.43-9.477-7.986-15.653-7.986zM442.41 559.277c7.773 11.074 17.463 16.611 28.963 16.611s21.083-5.537 28.856-16.61c1.597-2.237 2.982-5.005 4.26-8.093-27.366-3.514-50.792-17.463-72.94-33.861 1.598 19.912 5.112 33.86 10.861 41.953zM291.208 416.274h81.138v-23.851H271.19l-13.949 74.11c9.157-5.111 17.782-8.731 26.088-11.18l7.88-39.079z m139.49 76.347c0-33.329 4.259-56.222 12.884-68.68 6.814-9.69 15.972-14.588 27.472-14.588 11.606 0 21.402 5.537 29.175 16.504s11.713 33.222 11.713 66.657c0 26.514-2.449 46-7.454 58.458 4.26 0.532 8.625 0.852 13.098 0.852 4.259 0 8.305-0.213 12.351-0.533l0.32-0.958c4.898-14.694 7.347-33.86 7.347-57.712 0-20.125-1.49-36.204-4.579-48.023-3.088-11.926-7.24-21.935-12.564-30.24-5.325-8.306-12.14-14.588-20.338-18.954-8.2-4.366-17.782-6.602-28.75-6.602-14.8 0-27.046 3.94-36.842 11.926-9.796 7.986-17.143 19.273-22.042 33.86-4.898 14.695-7.453 33.968-7.453 58.033v3.94c8.731 6.92 17.463 13.948 26.513 20.657-0.532-7.348-0.851-15.547-0.851-24.597z m311.987-106.48h-20.231l-41.634 80.285c7.88-3.833 15.972-6.601 24.49-7.986l37.375-72.3zM610.649 493.684c12.352 0 22.787-4.685 31.306-13.949 8.411-9.263 12.67-22.573 12.67-39.717 0-17.675-4.152-30.985-12.564-40.143-8.412-9.157-18.953-13.63-31.731-13.63-13.843 0-24.49 5.112-31.731 15.227-7.347 10.223-10.968 22.468-10.968 37.056 0 18.527 4.047 32.263 12.246 41.42 8.305 9.158 18.527 13.736 30.772 13.736z m-15.013-82.309c4.152-5.324 9.263-8.092 15.44-8.092 6.175 0 11.393 2.662 15.545 7.986 4.153 5.324 6.283 14.587 6.283 27.685 0 14.268-2.023 24.064-6.176 29.388s-9.264 8.093-15.546 8.093c-6.07 0-11.18-2.662-15.44-7.986-4.153-5.324-6.282-14.482-6.282-27.472 0-14.375 2.023-24.171 6.176-29.602z m0 0" fill="#108CEE" p-id="10265"></path></svg>