<?xml version="1.0" standalone="no"?><!DOCTYPE svg PUBLIC "-//W3C//DTD SVG 1.1//EN" "http://www.w3.org/Graphics/SVG/1.1/DTD/svg11.dtd"><svg t="1604911294760" class="icon" viewBox="0 0 1024 1024" version="1.1" xmlns="http://www.w3.org/2000/svg" p-id="7302" xmlns:xlink="http://www.w3.org/1999/xlink" width="32" height="32"><defs><style type="text/css"></style></defs><path d="M112.64 184.32h588.8v220.16H112.64z" fill="#E1F1F9" p-id="7303"></path><path d="M302.08 729.088h-29.696v60.416h-28.672v-60.416H135.68v-18.944l102.912-153.088h34.304v148.992H302.08v23.04z m-57.856-23.552v-97.28c0-6.656 0-14.848 0.512-24.064h-0.512c-1.536 3.584-4.096 9.728-8.704 17.92l-69.12 103.424h77.824zM366.592 752.128l-25.6 79.872h-21.504l18.432-79.872h28.672zM453.12 667.136c-27.648-12.8-41.472-31.744-41.472-56.32 0-16.896 6.656-31.232 19.456-41.984 12.8-10.752 29.696-15.872 49.664-15.872 18.432 0 33.792 5.12 45.568 15.36s17.92 23.04 17.92 38.912c0 25.6-14.336 45.568-43.52 59.392v0.512c33.792 12.288 50.688 32.768 50.688 62.464 0 19.456-7.168 34.816-20.992 46.08s-33.28 17.408-58.368 17.408c-20.48 0-37.376-5.632-50.176-16.896s-19.456-26.112-19.456-44.032c0-29.696 16.384-51.2 49.664-64.512v-0.512z m22.528 13.824c-28.672 11.776-43.008 28.16-43.008 49.664 0 11.264 4.096 20.48 12.8 27.648s19.456 10.752 32.768 10.752c13.312 0 23.552-3.584 31.744-10.752s12.288-15.872 12.288-26.624c0-22.528-15.36-39.424-46.592-50.688z m38.912-70.144c0-10.24-3.072-18.432-9.728-24.576-6.656-6.144-15.36-9.216-26.624-9.216-10.24 0-19.456 3.072-26.624 9.216-7.168 6.144-10.752 14.336-10.752 24.064 0 19.456 12.288 34.304 36.352 44.032 25.088-9.728 37.376-24.576 37.376-43.52zM581.12 677.888c0-40.96 6.656-72.192 20.48-93.184S634.88 552.96 660.48 552.96c49.152 0 73.728 39.936 73.728 119.296 0 39.424-7.168 69.12-20.992 90.112s-33.28 31.232-58.368 31.232c-23.552 0-41.984-9.728-54.784-29.696s-18.944-48.64-18.944-86.016z m29.696-1.536c0 61.952 15.872 92.672 47.104 92.672 30.72 0 46.08-31.232 46.08-94.208 0-65.024-14.848-97.28-45.056-97.28-31.744 0-48.128 32.768-48.128 98.816zM909.312 789.504h-133.12v-25.6h52.224v-176.64l-53.248 15.36v-27.136l82.432-24.064v211.968h51.712v26.112z" fill="#0CAAD7" p-id="7304"></path></svg>