<?xml version="1.0" standalone="no"?><!DOCTYPE svg PUBLIC "-//W3C//DTD SVG 1.1//EN" "http://www.w3.org/Graphics/SVG/1.1/DTD/svg11.dtd"><svg t="1604911581925" class="icon" viewBox="0 0 1024 1024" version="1.1" xmlns="http://www.w3.org/2000/svg" p-id="10408" xmlns:xlink="http://www.w3.org/1999/xlink" width="32" height="32"><defs><style type="text/css"></style></defs><path d="M512 907.50731812a394.41991959 394.41991959 0 1 1 153.90188097-31.09678244A393.67834245 393.67834245 0 0 1 512 907.50731812zM512 148.37998479A363.61976801 363.61976801 0 1 0 875.61976801 511.99975281 364.01527505 364.01527505 0 0 0 512 148.37998479z m0 1e-8" fill="#C0C4CC" p-id="10409"></path><path d="M693.73572629 466.31862905L624.81853322 598.02264795h-19.47874819l65.30818739-124.28825206c-43.11032453 20.66527007-77.2228525 73.11946127-141.74002425 78.85432068a66.74190164 66.74190164 0 0 1-20.31920074 30.65183617 53.44295995 53.44295995 0 0 1-34.60691197 11.17308874 52.7013828 52.7013828 0 0 1-43.40695537-19.77537826 120.23430007 120.23430007 0 0 1-18.88548646-73.02058431 122.80509931 122.80509931 0 0 0-114.20280902-38.3147954l-2.91686858 14.43602667a62.73738737 62.73738737 0 0 1 36.0900655-11.86522742 57.69466584 57.69466584 0 0 1 42.22043271 17.10570207 59.3261348 59.3261348 0 0 1 17.20457903 43.95077863 67.97786279 67.97786279 0 0 1-15.07872608 44.49460109 60.66097289 60.66097289 0 0 1-50.08114586 22.93943846 62.29244184 62.29244184 0 0 1-42.51706281-14.43602589 55.56881289 55.56881289 0 0 1-18.7866095-38.21591844l24.71922283-2.07641446a43.30807843 43.30807843 0 0 0 12.70568075 26.69676034 34.60691197 34.60691197 0 0 0 24.02708416 8.99779733 37.52378053 37.52378053 0 0 0 28.62486016-12.65624228 47.26315425 47.26315425 0 0 0 11.716912-33.51926625 42.51706357 42.51706357 0 0 0-11.32140418-31.24509787 39.55075653 39.55075653 0 0 0-29.66306741-11.46971884 41.03391005 41.03391005 0 0 0-20.41807845 4.94384456 38.90805712 38.90805712 0 0 0-14.28771046 13.15062627l-22.00010817-2.8674301 5.38879009-28.08103692c-19.18211655 10.57982703-84.88581096 40.39120986-136.99393281 63.23177213 0 0 16.80907121 340.68032879 376.0288179 343.9432667 0 0 372.9636339 0 376.32544799-374.79285676-55.02498966-54.97555195-163.93788554-44.4946011-194.73803713-39.64963348z m64.26997936 118.65226959a38.56198777 38.56198777 0 0 1-29.6630674 12.95287235 36.88108034 36.88108034 0 0 1-28.82261407-12.85399539 55.71712833 55.71712833 0 0 1-11.5191573-38.41367235 56.40926622 56.40926622 0 0 1 10.28319616-34.60691197 34.60691197 34.60691197 0 0 1 30.00913674-14.13939579 39.2046872 39.2046872 0 0 1 29.6630674 12.65624227 52.7013828 52.7013828 0 0 1 11.81578817 37.22714967 53.59127538 53.59127538 0 0 1-11.91466512 37.27658817z m0 0" fill="#C0C4CC" p-id="10410"></path><path d="M730.36961425 509.42895357a17.69896379 17.69896379 0 0 0-14.8315337 7.5146438 46.17550852 46.17550852 0 0 0-5.83373638 27.38889903 41.82492491 41.82492491 0 0 0 5.93261333 25.51023768 18.24278627 18.24278627 0 0 0 29.6630674 0 45.82943919 45.82943919 0 0 0 5.83373715-27.29002207 42.31930968 42.31930968 0 0 0-5.93261411-25.70799159 18.14390932 18.14390932 0 0 0-14.83153369-7.41576685z m-283.97443171 45.53280834a31.93723578 31.93723578 0 0 0 54.67892109 0 37.72153368 37.72153368 0 0 0 4.00451428-7.51464381 150.58950537 150.58950537 0 0 1-69.21382393-31.442851 80.63410507 80.63410507 0 0 0 10.48095009 39.00693328zM303.36975946 422.26897423h76.72846772v-22.14842359H284.43483452L271.23476977 468.88942828a121.61857663 121.61857663 0 0 1 24.71922284-10.3820739z m0 0l131.9017728 70.84529211a117.91069322 117.91069322 0 0 1 12.16185751-63.72615612 30.40464377 30.40464377 0 0 1 26.00462245-13.54613408 33.12375844 33.12375844 0 0 1 27.58665294 15.3259177 116.52641664 116.52641664 0 0 1 11.07421179 61.84749555 153.25918156 153.25918156 0 0 1-7.06969751 54.38229023 101.7937599 101.7937599 0 0 0 12.40904989 0.79101563c4.00451429 0 7.86071313 0 11.66747274-0.49438477l0.29663086-0.8898918a170.0188143 170.0188143 0 0 0 6.97082056-53.54183691 180.84583448 180.84583448 0 0 0-4.35058284-44.4946011 95.26788486 95.26788486 0 0 0-11.86522742-28.08103692 50.77328376 50.77328376 0 0 0-19.23155502-17.60008683 57.94185822 57.94185822 0 0 0-27.19114513-6.13036724 53.93734394 53.93734394 0 0 0-34.60691196 11.07421181 66.59358622 66.59358622 0 0 0-20.86302397 31.44285177 170.80982993 170.80982993 0 0 0-7.06969752 53.83846699v3.65844496c8.25622018 6.42699808 16.51244112 12.95287314 25.0652914 19.18211731a234.68430147 234.68430147 0 0 1-0.98876877-22.9888777z m295.0486435-98.87689131h-19.13267808l-39.55075653 74.50373705a84.39142696 84.39142696 0 0 1 23.18663083-7.41576685z m6.92138207 170.76039066a39.05637176 39.05637176 0 0 0 29.66306741-12.95287235 63.47896451 63.47896451 0 0 0 0-74.1576685 39.25412568 39.25412568 0 0 0-30.00913597-12.65624229 34.9529813 34.9529813 0 0 0-30.00913672 14.13939581 56.35982776 56.35982776 0 0 0-10.3820739 34.60691197 55.27218203 55.27218203 0 0 0 11.56859657 38.41367234 38.01816454 38.01816454 0 0 0 29.11924492 12.75511845z m-14.18883349-76.38239839a18.14390932 18.14390932 0 0 1 29.31699806 0 42.31930968 42.31930968 0 0 1 5.93261332 25.70799159 45.82943919 45.82943919 0 0 1-5.83373637 27.29002207 18.14390932 18.14390932 0 0 1-29.31699806 0 41.82492491 41.82492491 0 0 1-5.93261332-25.51023768 46.52157709 46.52157709 0 0 1 5.83373637-27.48777598z m0 0" fill="#C0C4CC" p-id="10411"></path></svg>