<?xml version="1.0" standalone="no"?><!DOCTYPE svg PUBLIC "-//W3C//DTD SVG 1.1//EN" "http://www.w3.org/Graphics/SVG/1.1/DTD/svg11.dtd"><svg t="1604911404077" class="icon" viewBox="0 0 1024 1024" version="1.1" xmlns="http://www.w3.org/2000/svg" p-id="8621" xmlns:xlink="http://www.w3.org/1999/xlink" width="32" height="32"><defs><style type="text/css"></style></defs><path d="M768 256m-64 0a64 64 0 1 0 128 0 64 64 0 1 0-128 0Z" fill="#C0C5D3" p-id="8622"></path><path d="M640 384m-64 0a64 64 0 1 0 128 0 64 64 0 1 0-128 0Z" fill="#C0C5D3" p-id="8623"></path><path d="M352 448m-64 0a64 64 0 1 0 128 0 64 64 0 1 0-128 0Z" fill="#C0C5D3" p-id="8624"></path><path d="M448 288m-64 0a64 64 0 1 0 128 0 64 64 0 1 0-128 0Z" fill="#C0C5D3" p-id="8625"></path><path d="M480 576m-64 0a64 64 0 1 0 128 0 64 64 0 1 0-128 0Z" fill="#C0C5D3" p-id="8626"></path><path d="M288 832m-64 0a64 64 0 1 0 128 0 64 64 0 1 0-128 0Z" fill="#C0C5D3" p-id="8627"></path><path d="M224 608m-64 0a64 64 0 1 0 128 0 64 64 0 1 0-128 0Z" fill="#C0C5D3" p-id="8628"></path><path d="M672 608m-64 0a64 64 0 1 0 128 0 64 64 0 1 0-128 0Z" fill="#C0C5D3" p-id="8629"></path><path d="M544 768m-64 0a64 64 0 1 0 128 0 64 64 0 1 0-128 0Z" fill="#C0C5D3" p-id="8630"></path><path d="M832 512m-64 0a64 64 0 1 0 128 0 64 64 0 1 0-128 0Z" fill="#C0C5D3" p-id="8631"></path><path d="M800 832m-64 0a64 64 0 1 0 128 0 64 64 0 1 0-128 0Z" fill="#C0C5D3" p-id="8632"></path><path d="M192 256m-64 0a64 64 0 1 0 128 0 64 64 0 1 0-128 0Z" fill="#C0C5D3" p-id="8633"></path></svg>