<?xml version="1.0" standalone="no"?><!DOCTYPE svg PUBLIC "-//W3C//DTD SVG 1.1//EN" "http://www.w3.org/Graphics/SVG/1.1/DTD/svg11.dtd"><svg t="1604911552614" class="icon" viewBox="0 0 1024 1024" version="1.1" xmlns="http://www.w3.org/2000/svg" p-id="9948" xmlns:xlink="http://www.w3.org/1999/xlink" width="32" height="32"><defs><style type="text/css"></style></defs><path d="M240 384h-160a32 32 0 0 1 0-64h160a32 32 0 0 1 0 64z" fill="#4A8BFE" p-id="9949"></path><path d="M160 640a32 32 0 0 1-32-32v-224a32 32 0 0 1 64 0v224a32 32 0 0 1-32 32zM944 384h-160a32 32 0 0 1 0-64h160a32 32 0 0 1 0 64z" fill="#4A8BFE" p-id="9950"></path><path d="M864 640a32 32 0 0 1-32-32v-224a32 32 0 0 1 64 0v224a32 32 0 0 1-32 32zM464 640h-128a32 32 0 0 1-32-32v-256a32 32 0 0 1 32-32h128a32 32 0 0 1 0 64h-96v192h96a32 32 0 0 1 0 64z" fill="#4A8BFE" p-id="9951"></path><path d="M464 512h-128a32 32 0 0 1 0-64h128a32 32 0 0 1 0 64zM560 640a29.76 29.76 0 0 1-14.4-3.52 32 32 0 0 1-14.08-42.88l128-256a32 32 0 1 1 56.96 28.8l-128 256a32 32 0 0 1-28.48 17.6z" fill="#4A8BFE" p-id="9952"></path><path d="M688 640a32 32 0 0 1-28.48-17.6l-128-256a32 32 0 0 1 56.96-28.8l128 256a32 32 0 0 1-12.48 42.88 29.76 29.76 0 0 1-16 3.52z" fill="#4A8BFE" p-id="9953"></path><path d="M246.4 722.24H128a16 16 0 0 1-16-16 16 16 0 0 1 16-16h118.4a16 16 0 0 1 16 16 16 16 0 0 1-16 16z" fill="#3BD5B3" p-id="9954"></path><path d="M187.2 912a16 16 0 0 1-16-16v-185.28a16.32 16.32 0 0 1 16-16 16 16 0 0 1 16 16V896a16 16 0 0 1-16 16zM768 722.24h-118.4a16 16 0 0 1-16-16 16 16 0 0 1 16-16H768a16 16 0 0 1 16 16 16 16 0 0 1-16 16z" fill="#3BD5B3" p-id="9955"></path><path d="M708.8 912a16 16 0 0 1-16-16v-183.36a16 16 0 0 1 16-16 16 16 0 0 1 16 16V896a16 16 0 0 1-16 16zM412.48 912h-96a16 16 0 0 1-16-16v-189.76a16 16 0 0 1 16-16h96a16 16 0 0 1 16 16 16 16 0 0 1-16 16h-78.72v157.76h78.72a16 16 0 0 1 0 32z" fill="#3BD5B3" p-id="9956"></path><path d="M412.48 817.28h-96a16 16 0 0 1-16-16 16 16 0 0 1 16-16h96a16 16 0 0 1 16 16 16 16 0 0 1-16 16zM483.52 912a18.88 18.88 0 0 1-7.04-1.6 16.32 16.32 0 0 1-7.36-21.44l96-189.76a15.68 15.68 0 0 1 21.44-7.04 16 16 0 0 1 7.04 21.44l-96 189.44a16 16 0 0 1-14.08 8.96z" fill="#3BD5B3" p-id="9957"></path><path d="M578.24 912a15.36 15.36 0 0 1-14.08-8.96l-96-189.44a16 16 0 0 1 7.36-21.44 15.68 15.68 0 0 1 21.44 7.04l96 189.76a16.32 16.32 0 0 1-7.04 21.44 18.88 18.88 0 0 1-7.68 1.6zM544 144h-80a16 16 0 0 1 0-32H544a16 16 0 0 1 0 32z" fill="#3BD5B3" p-id="9958"></path><path d="M504 272a16 16 0 0 1-16-16V144a16 16 0 0 1 32 0V256a16 16 0 0 1-16 16zM896 144h-80a16 16 0 0 1 0-32H896a16 16 0 0 1 0 32z" fill="#3BD5B3" p-id="9959"></path><path d="M856 272a16 16 0 0 1-16-16V144a16 16 0 0 1 32 0V256a16 16 0 0 1-16 16zM656 272h-64A16 16 0 0 1 576 256V128a16 16 0 0 1 16-16h64a16 16 0 0 1 0 32H608v96h48a16 16 0 0 1 0 32z" fill="#3BD5B3" p-id="9960"></path><path d="M656 208h-64a16 16 0 0 1 0-32h64a16 16 0 0 1 0 32zM704 272a17.28 17.28 0 0 1-7.04-1.6 16.32 16.32 0 0 1-7.36-21.44l64-128a16 16 0 1 1 28.8 14.08l-64 128a16 16 0 0 1-14.4 8.96z" fill="#3BD5B3" p-id="9961"></path><path d="M768 272a16 16 0 0 1-14.4-8.96l-64-128a16 16 0 0 1 28.8-14.08l64 128a16.32 16.32 0 0 1-7.36 21.44 17.28 17.28 0 0 1-7.04 1.6z" fill="#3BD5B3" p-id="9962"></path></svg>