<?xml version="1.0" standalone="no"?><!DOCTYPE svg PUBLIC "-//W3C//DTD SVG 1.1//EN" "http://www.w3.org/Graphics/SVG/1.1/DTD/svg11.dtd"><svg t="1604911354110" class="icon" viewBox="0 0 1024 1024" version="1.1" xmlns="http://www.w3.org/2000/svg" p-id="8031" xmlns:xlink="http://www.w3.org/1999/xlink" width="32" height="32"><defs><style type="text/css"></style></defs><path d="M503.36 992a32 32 0 0 1-16-4.16l-387.84-224a32 32 0 0 1-16-27.84V288a32 32 0 0 1 16-27.84l387.84-224a32 32 0 0 1 32 0l388.16 224a32 32 0 0 1 16 27.84v448a32 32 0 0 1-16 27.84l-388.16 224a32 32 0 0 1-16 4.16zM147.52 717.44l355.84 205.76 356.16-205.76V306.56L503.36 100.8 147.52 306.56z" fill="#C0C5D3" p-id="8032"></path><path d="M503.36 864a32 32 0 0 1-15.36-3.84l-291.84-160a32 32 0 0 1-16-35.2l64-288a34.24 34.24 0 0 1 12.8-19.2l228.16-160a32 32 0 0 1 36.8 0l227.84 160a32 32 0 0 1 12.8 19.2l64 288a32 32 0 0 1-15.68 35.2l-292.16 160a32 32 0 0 1-15.36 3.84z m-256-208.64l256 140.16 256-140.16L704 403.2l-200.64-140.16L304 403.2z" fill="#9BA1B5" p-id="8033"></path></svg>