<?xml version="1.0" standalone="no"?><!DOCTYPE svg PUBLIC "-//W3C//DTD SVG 1.1//EN" "http://www.w3.org/Graphics/SVG/1.1/DTD/svg11.dtd"><svg t="1604911463607" class="icon" viewBox="0 0 1024 1024" version="1.1" xmlns="http://www.w3.org/2000/svg" p-id="9068" xmlns:xlink="http://www.w3.org/1999/xlink" width="32" height="32"><defs><style type="text/css"></style></defs><path d="M685.568 688.128c-39.936 36.352-91.136 60.416-147.968 66.048v143.872c96.256-6.144 183.296-46.08 249.344-108.544l-101.376-101.376zM351.744 697.856l-100.352 102.4c66.56 57.856 152.064 93.696 245.76 97.28v-143.36c-55.296-3.072-105.472-23.552-145.408-56.32z" fill="#E1F1F9" p-id="9069"></path><path d="M302.592 499.2c0 50.176 17.408 95.744 46.592 132.096l89.088-89.088c-6.656-11.776-10.24-25.6-10.24-40.448 0-39.424 27.136-72.192 63.488-81.92V290.304c-105.984 10.752-188.928 99.84-188.928 208.896z" fill="#0FA7DB" p-id="9070"></path><path d="M113.152 499.2c0 102.4 38.4 195.584 101.888 266.24l101.376-101.376c-37.376-44.544-59.904-101.888-59.904-164.864 0-134.144 103.424-244.224 235.008-254.976V100.352c-210.944 11.264-378.368 185.344-378.368 398.848z" fill="#0FA7DB" p-id="9071"></path><path d="M537.6 290.816v130.048c34.304 10.752 59.392 43.008 59.392 80.896 0 46.592-37.888 84.48-84.48 84.48-14.848 0-28.672-4.096-40.96-10.752L384 665.088c35.328 27.648 80.384 44.032 128.512 44.032 115.712 0 209.92-94.208 209.92-209.92 0-107.52-80.896-196.096-184.832-208.384z" fill="#E1F1F9" p-id="9072"></path><path d="M537.6 100.864v143.872c129.536 12.8 230.912 121.856 230.912 254.976 0 58.88-19.968 113.664-53.76 156.672l101.888 101.888c59.392-69.632 95.232-159.744 95.232-258.56 0-212.48-165.376-386.048-374.272-398.848z" fill="#E1F1F9" p-id="9073"></path></svg>