<?xml version="1.0" standalone="no"?><!DOCTYPE svg PUBLIC "-//W3C//DTD SVG 1.1//EN" "http://www.w3.org/Graphics/SVG/1.1/DTD/svg11.dtd"><svg t="1604911401077" class="icon" viewBox="0 0 1024 1024" version="1.1" xmlns="http://www.w3.org/2000/svg" p-id="8466" xmlns:xlink="http://www.w3.org/1999/xlink" width="32" height="32"><defs><style type="text/css"></style></defs><path d="M768 256m-64 0a64 64 0 1 0 128 0 64 64 0 1 0-128 0Z" fill="#4A8BFE" p-id="8467"></path><path d="M640 384m-64 0a64 64 0 1 0 128 0 64 64 0 1 0-128 0Z" fill="#4A8BFE" p-id="8468"></path><path d="M352 448m-64 0a64 64 0 1 0 128 0 64 64 0 1 0-128 0Z" fill="#4A8BFE" p-id="8469"></path><path d="M448 288m-64 0a64 64 0 1 0 128 0 64 64 0 1 0-128 0Z" fill="#4A8BFE" p-id="8470"></path><path d="M480 576m-64 0a64 64 0 1 0 128 0 64 64 0 1 0-128 0Z" fill="#4A8BFE" p-id="8471"></path><path d="M288 832m-64 0a64 64 0 1 0 128 0 64 64 0 1 0-128 0Z" fill="#4A8BFE" p-id="8472"></path><path d="M224 608m-64 0a64 64 0 1 0 128 0 64 64 0 1 0-128 0Z" fill="#4A8BFE" p-id="8473"></path><path d="M672 608m-64 0a64 64 0 1 0 128 0 64 64 0 1 0-128 0Z" fill="#4A8BFE" p-id="8474"></path><path d="M544 768m-64 0a64 64 0 1 0 128 0 64 64 0 1 0-128 0Z" fill="#4A8BFE" p-id="8475"></path><path d="M832 512m-64 0a64 64 0 1 0 128 0 64 64 0 1 0-128 0Z" fill="#4A8BFE" p-id="8476"></path><path d="M800 832m-64 0a64 64 0 1 0 128 0 64 64 0 1 0-128 0Z" fill="#4A8BFE" p-id="8477"></path><path d="M192 256m-64 0a64 64 0 1 0 128 0 64 64 0 1 0-128 0Z" fill="#4A8BFE" p-id="8478"></path></svg>