<?xml version="1.0" standalone="no"?><!DOCTYPE svg PUBLIC "-//W3C//DTD SVG 1.1//EN" "http://www.w3.org/Graphics/SVG/1.1/DTD/svg11.dtd"><svg t="1604910969891" class="icon" viewBox="0 0 1024 1024" version="1.1" xmlns="http://www.w3.org/2000/svg" p-id="5718" xmlns:xlink="http://www.w3.org/1999/xlink" width="32" height="32"><defs><style type="text/css"></style></defs><path d="M307.84 230.72v1.92a17.92 17.92 0 0 1 0 3.2s-2.24 4.48-3.2 4.48h-12.8L288 245.44a21.76 21.76 0 0 0-1.92 6.4v8.64a13.44 13.44 0 0 1-2.24 4.8v2.24h-3.2l-3.84 3.84s-4.16-2.88-4.16-3.52-4.16-1.92-4.8-1.92a10.24 10.24 0 0 1-4.48 0L256 262.4l-4.8-3.2h-2.88c-0.64 0-3.52 4.16-3.52 4.16l-4.16 6.72-3.2 6.08-3.52 4.48-2.24 4.16v2.88l2.24 5.76-2.24 1.92-5.76-2.56S224 288 222.08 288H194.88v2.24c0 2.24 2.24 2.24 2.24 2.24s2.24 0 2.24 1.92a33.6 33.6 0 0 1 0 5.76v24.96c0 0.64 0 2.88-2.56 3.52a5.12 5.12 0 0 0-1.92 1.6 1.92 1.92 0 0 1-2.24 0 6.08 6.08 0 0 0-4.16 0V344.96a6.4 6.4 0 0 0-2.56 0h-14.4L160 352h-10.88a11.52 11.52 0 0 1-3.2 3.52h-4.48s-3.2 3.2-4.16 3.2S128 352 128 352a96 96 0 0 0-10.24 9.6h-12.48V354.56H93.76l-1.92 2.24h-1.92l-2.56 1.92h-10.24v4.16l-2.88 3.2a4.8 4.8 0 0 1 0 1.92h-4.8a3.2 3.2 0 0 0 0 4.16 8.64 8.64 0 0 1 0 5.44s-3.2 3.2-2.88 4.48 0 3.84 2.24 3.84a43.52 43.52 0 0 1 8.64 0s4.8 3.52 4.16 4.8-2.24 1.92-2.24 4.16v7.04c0 1.28-2.88 4.8-3.2 5.12s0 3.84 0 4.8v3.2c0 0.32-9.28 0-9.28 0v3.2a40.64 40.64 0 0 0 5.76 3.84l4.16 3.52v2.24s2.24 0 3.2 1.6 4.48 4.8 4.16 6.4-1.92 4.16-1.92 5.44v5.12c0 0.96 0 1.92 2.88 2.56s3.84 0 4.16 0a8.64 8.64 0 0 0 0 5.12c2.24 1.92 2.56 2.88 4.8 3.84a44.48 44.48 0 0 0 6.72 3.52l5.12 1.6h2.56c0.32 0-1.92 3.2-1.92 3.84v3.2a4.16 4.16 0 0 1 0 2.88 24.32 24.32 0 0 1 0 4.48 7.04 7.04 0 0 0 0 3.2 25.92 25.92 0 0 0 3.52 4.16 30.08 30.08 0 0 1 4.48 3.2v2.24c0 2.24 0 2.56-1.92 2.88H108.8v1.92a29.76 29.76 0 0 1 0 4.16 24.32 24.32 0 0 0 0 3.52 5.44 5.44 0 0 0 0 3.84 28.16 28.16 0 0 0 1.6 4.8v2.88a10.56 10.56 0 0 0 0 3.2 16 16 0 0 1 0 5.44 7.68 7.68 0 0 1-1.92 3.52s-1.92 1.6-2.88 1.6a8 8 0 0 1-4.16-1.92 3.2 3.2 0 0 1 0-2.56l2.24-1.92h-1.92a18.56 18.56 0 0 0-4.8 1.92 17.6 17.6 0 0 0 0 5.12v5.12l1.92 3.52v4.16l1.6 2.24-1.92 2.56a8.64 8.64 0 0 0 0 3.52s1.92 6.72 3.84 7.68 4.16 0 4.8 0 1.92 0 2.88 2.24 4.48 0 4.48 0a14.72 14.72 0 0 0 1.92 5.12l5.76 6.4 4.8 5.12 4.8 4.8 1.92 1.92h1.92l2.56-3.84h8.96s2.56 1.92 2.56 2.88a9.92 9.92 0 0 0 0 3.84 23.68 23.68 0 0 0 5.12 3.52l5.12 6.08 3.52 4.16a7.68 7.68 0 0 1 2.56 3.52c0 1.6 0 4.16 1.92 5.12s2.56 1.92 3.84 1.6 3.84-1.6 5.12 0a3.84 3.84 0 0 1 2.88 3.52v4.8c0 0.64 5.76 5.44 5.76 5.44l4.48 3.2h2.56c0.96 0 1.6 2.24 0 2.88s0 1.92 0 2.24h8.32a52.48 52.48 0 0 1 2.24 4.8 5.44 5.44 0 0 0 0 3.2h2.88v-1.92 3.2l1.92 1.6 2.24-1.6h1.92l7.04 4.8 4.8 2.24h34.88s3.84 0 4.16 2.56-2.24 7.36-2.24 8.64a6.72 6.72 0 0 0 0 4.16s0 1.92 1.92 0 1.6 0 2.56-3.84a9.92 9.92 0 0 1 2.88-4.48l5.76-5.12c1.6 0 2.88-2.56 4.8-2.56h5.12a39.68 39.68 0 0 1 6.4 3.2l7.36 3.84h1.92c1.92 0 2.56 0 3.2-1.6s1.6-1.6 3.2 0 2.56 2.56 2.56 3.52a8.64 8.64 0 0 0 0 4.16s1.6 4.48 1.92 4.8 2.24 0 2.88 1.6 3.2 0 3.84 1.6a12.48 12.48 0 0 1 0 4.48v4.48a4.8 4.8 0 0 0 2.56 0 41.28 41.28 0 0 0 6.72 1.6h5.76a14.4 14.4 0 0 0 5.76 0 32 32 0 0 0 7.68 0s3.52-3.2 4.16-4.16a16 16 0 0 1 3.2-4.16 12.16 12.16 0 0 1 4.48-2.88c2.24 0 3.52-1.92 6.08-1.92a41.92 41.92 0 0 0 6.72 0l4.8-2.88s2.88-4.16 3.84-4.48a15.68 15.68 0 0 1 4.8 0H396.8a23.04 23.04 0 0 1 4.8 4.16s1.92 2.24 2.88 2.56a7.04 7.04 0 0 0 3.52 1.6h3.2a6.08 6.08 0 0 0 1.6-2.88 12.8 12.8 0 0 0 0-3.52l2.24-2.56s2.24-1.6 3.52 0l3.52 2.88s3.2 2.24 3.52 2.88 0 2.56 0 3.84v5.44c0 0.96 0 2.56 1.6 2.56s2.24-2.24 2.24-2.24h2.24c2.24 0 3.2 3.52 3.2 4.48a44.16 44.16 0 0 0 0 7.04v12.8a18.56 18.56 0 0 0-1.6 3.52v2.88l-2.56 1.92v5.76h-1.92l-2.24 4.16s-2.88-1.92-3.84 0v3.2l-2.24 1.6a10.56 10.56 0 0 1-3.2 0V747.52l4.8-1.92H435.84s2.88 0 1.6 2.56a6.72 6.72 0 0 1-1.92 2.56v1.6h1.92v11.2H448s3.84 0 2.24 2.24l-3.52 3.52v12.48h12.48v6.4a36.8 36.8 0 0 0 3.2 2.56h10.24l2.24-1.6 1.92-1.92h4.16V798.08h10.56V788.8l-1.6-2.88v-10.24s1.92-1.6 2.88-1.6h10.24a7.04 7.04 0 0 1 1.92-1.6l2.56-2.24h2.24c2.24 0 2.24 2.56 2.24 2.56h5.12l1.6-1.6 1.6-2.24h3.84l1.6 2.24 2.88-2.56h1.92l2.56 3.84s0 1.92 1.92 1.92 2.56-2.56 2.56-2.56v-3.52h4.48a56.96 56.96 0 0 0 7.36-2.88s1.92-5.44 2.56-5.76 7.68-4.16 8.96-3.52 6.72 6.08 7.36 6.4a149.12 149.12 0 0 1 15.68 1.92 2.88 2.88 0 0 1 1.6 4.16 11.52 11.52 0 0 0-2.24 5.76v6.4c0 0.64 3.2 0 4.8 1.92l6.72 4.48a17.28 17.28 0 0 0 6.08 2.56h8a2.56 2.56 0 0 0 2.24 0v-1.92h2.56v-2.24h4.16a21.12 21.12 0 0 1 0-3.52 6.08 6.08 0 0 1 0-2.56l1.92 2.88 1.92 2.56v-2.56l1.6 3.2h1.92v2.88h7.68v-5.12l1.92 3.52h4.16l-3.52 3.84v15.04l3.52 3.84s0 4.8-2.88 5.44h-4.16s0 1.6-1.92 1.6h-3.52s-3.2 0-2.56 1.6a13.44 13.44 0 0 1 0 2.88l-11.84 8a56.96 56.96 0 0 0 0 8 35.84 35.84 0 0 0 1.92 7.36s4.16 4.8 5.12 4.8a15.68 15.68 0 0 0 4.48 0 11.84 11.84 0 0 1 4.8 0s2.24 2.88 2.56 2.56a8 8 0 0 0 3.84-2.56c0-1.6 0-3.2 2.88-3.2h2.88c0.32 0 2.88-4.8 3.84-5.12h3.84v-1.92a10.24 10.24 0 0 0 0-3.2V832l4.16-7.68v-3.84h3.84a22.72 22.72 0 0 0 0-5.44s-3.2-4.16-4.48-4.16h-4.48s-4.16-2.56-3.52-3.84a24.32 24.32 0 0 0 2.56-3.52l-2.56-3.2v25.28h-2.88a19.84 19.84 0 0 1 0-5.12h1.92l1.6 2.24h1.6v-5.12l-1.6-3.2 5.44 3.84v-2.24l1.92-2.24h4.16v-1.6a12.48 12.48 0 0 0 3.52 0h4.16l4.48-2.24v-1.92c0 1.28 0 2.24 2.24 2.24h1.92v-2.56a1.92 1.92 0 0 1 2.24 0h4.48a9.92 9.92 0 0 0 2.88 1.6 5.76 5.76 0 0 0 2.88 0 2.24 2.24 0 0 0 1.92 0A20.16 20.16 0 0 0 704 800h1.92s1.92-2.24 1.6-3.52a6.08 6.08 0 0 1 0-3.2l2.56 2.56h4.16s1.92 0 1.92-2.56v-4.48a20.8 20.8 0 0 0 0-4.48 32 32 0 0 0 0-6.4l2.56 2.56 2.24 3.84 2.56 3.2h1.92V792.96h5.12l1.92-1.92v-6.4h1.6l2.56 1.92v-4.8l1.92 2.24h1.92v-3.84h2.24l3.84-2.24v4.8h4.48l-1.6-2.88h6.4a16 16 0 0 0 4.48 0s7.68-3.2 8.32-5.12 1.6 0 0-3.2a7.68 7.68 0 0 0-1.92-3.52h4.48a15.68 15.68 0 0 0 0-3.84H775.04V768h2.88l2.24-4.48 5.44-6.08 3.52-4.48 4.48-3.84v-3.2h-3.52 3.2L800 736l3.84 1.92h2.56l2.56-3.52 2.88-3.52-3.2-3.52h3.84l2.24-2.24-1.6-2.56v-2.56h2.56l2.24-1.92-2.56-3.2v-2.56l3.52 2.56H822.72l1.6-2.24-2.24-3.52h-2.24V704h-4.16v-2.24l2.24-1.6 2.88-2.24h1.6v-3.84l4.48-3.84v-4.16l2.56-4.16 3.52-4.8v-9.6l1.6-2.56v-4.16l1.92-2.88h4.48l2.56-2.56c0-1.6-1.92-5.44-1.92-5.44l-2.24-2.24h3.2v-2.88l-1.92-3.84h-2.24l4.16-1.92 2.88-2.24 6.08-15.04-2.24-10.56h-1.92l-5.44 4.8v5.44l-1.6 1.6-4.16-1.92-4.16-1.92h-4.8l-4.16 1.92h-3.84v-3.2l3.84-1.6h1.92l2.24-4.48 2.88-2.88 5.12-3.2h8l-4.8-4.48-4.48-3.2 2.24-3.52h1.6v-5.76l5.44-12.8-5.44-3.2h-2.56l-3.2-4.8h-2.88l-2.24-1.92-2.88-2.56v-3.52l-5.44-7.36-1.6-5.12-1.6-5.44-3.2-4.48-2.88-3.52-4.16-1.92H800l-3.84-2.88-3.52-2.56v-6.4l2.24-7.36h2.24l2.24-1.6 2.88-2.56 1.92-2.56v-2.24l-2.24-2.88h3.2l1.92 2.56h2.24l2.88-1.92v-3.84l2.24-2.24v-1.92l2.88-2.88 5.12-2.88 3.2-3.2 2.56-2.56h2.56l1.92 1.92h3.84v-12.48h-6.4l-2.24-1.92h-8l-2.56-1.92h-3.84l-4.48-1.6-3.2 1.92h-3.2v1.92l-1.6 2.88h-2.24l-1.92 1.6v3.2h-11.52l-3.52-2.88v-12.16l-2.24-2.56h-3.52v1.6-1.6l-3.2 1.6h-4.16l-1.92-2.88-3.2-3.2-1.6-2.56-1.6-3.52V442.56l2.24-2.56 3.52 2.24h5.76l4.16-2.56 2.24-2.24 2.24-2.56v-6.72h2.56l4.16-3.52 3.84-2.88 3.84-2.24 2.56-2.56 1.6-4.48 1.6-3.52V404.16l2.88-1.92H810.88v-2.56h2.24v2.24l1.92 1.92 2.56 1.92v2.24l-1.92 3.52v1.92l-2.56 2.24-3.2 3.2V425.6h5.76v5.12l-4.48 2.56-2.56 1.92v3.84h2.88l3.2-2.24 2.88-1.92 2.56-2.56 2.24-1.92 1.92-3.2v-3.84l2.56-3.2 3.2-2.56 5.12-2.88h2.88l5.76-2.88h8l2.56-3.84 1.92-5.44 3.84-5.76 3.2-3.52 2.88-2.56 4.8-4.8 2.24-1.92 1.6-3.2 2.24-4.48 1.6-5.44v-3.84s0-2.56 2.24-2.56 3.84 2.24 3.84 2.24v1.6H900.16s1.6 0 1.6-1.6v-3.52l-3.2-2.88s-1.92-2.56-1.6-3.52 3.52-1.92 3.52-1.92h6.72a18.88 18.88 0 0 0 2.56-2.56 5.44 5.44 0 0 0 1.92-3.2v-3.2c0-0.96 0 0 1.92-1.6s1.6 0 2.56 0a9.28 9.28 0 0 0 0-5.12 32 32 0 0 1 0-5.44s0-2.24 0 0 3.52 1.92 3.84 2.88 2.24 2.56 2.24 3.2h6.08l-1.92-3.2v-2.56c0-2.56 0-2.56 2.88-2.88a6.4 6.4 0 0 0 3.52-3.52 41.92 41.92 0 0 0 0-4.8 29.12 29.12 0 0 0 0-5.12l-1.6-3.2v-13.44l-1.92-4.16-1.28-6.72v-4.16h2.88a14.72 14.72 0 0 0 3.52-5.12l1.92-3.52a5.44 5.44 0 0 1 3.52 0H954.24a9.92 9.92 0 0 0 0-3.84 41.92 41.92 0 0 1 0-4.8 17.28 17.28 0 0 1 1.6-3.52 3.2 3.2 0 0 0 0-2.56v-2.24l1.6-2.56v-1.6a10.56 10.56 0 0 0 0-3.2v-4.8a20.48 20.48 0 0 0 0-2.24h-1.6v-5.44a14.72 14.72 0 0 1 0-2.88v-3.2a3.52 3.52 0 0 0 0-2.56 5.12 5.12 0 0 0 0-3.2V227.2c0-1.6 2.24 0 2.88-3.2a15.68 15.68 0 0 1 0-4.48v-3.2c0-1.6-3.52 0-3.52-3.52v-2.88c0-2.88 0-2.56 1.6-3.84s2.56-1.6 2.88-2.88 0-2.88-1.6-2.56l-4.8 2.56-1.6 1.92a4.8 4.8 0 0 0-2.88 0l-4.16 3.52s-3.52 1.92-3.84 2.56l-1.92 3.2h-2.56s-2.24 0-2.88 1.92-1.92 2.88-2.24 4.48 0 3.2 0 3.52 0 0-1.92 0h-2.56a15.04 15.04 0 0 1-3.52 3.2h-7.36l-3.2 1.92h-2.88c-0.96 0-3.52-2.56-3.52-3.52s-1.92-3.84-1.6-4.8a5.12 5.12 0 0 0 0-4.16l-3.52-2.88c-1.6 0-2.24-1.6-2.24-2.24v-2.56c0-2.56-2.24 0-3.84 0h-3.2a4.16 4.16 0 0 1-2.56-3.52l-3.52-2.24c-3.52-2.24-1.92 0-2.56-1.92s0 0-2.24 0 0 0-2.24 1.92 0 0-2.88 0l-5.12-1.92h-6.4a12.8 12.8 0 0 1-3.52 0l-4.16-3.2-2.24-3.2a7.04 7.04 0 0 0 0-3.2l-1.6-2.24a2.56 2.56 0 0 0-2.88 0 10.24 10.24 0 0 1 0-3.52v-3.52-2.24h-2.56c-2.56-1.92-2.24-2.24-2.88-3.52a10.56 10.56 0 0 1-1.92-3.2l-1.6-2.24a13.44 13.44 0 0 1-1.92-2.56l-7.04 0.32s2.88 0 0-2.24-3.2 0-3.52-2.56a11.52 11.52 0 0 0 0-3.2l-1.92-2.56a4.8 4.8 0 0 1 0-2.56h-6.08a6.4 6.4 0 0 0 0-2.56l-2.24-1.92c-2.24-1.92 0 0-2.88 0s-1.6-1.92-3.84-2.24h-7.04c-0.64 0 0 1.6 0 1.6h-2.56s-4.48-2.56-5.44-2.56H770.24a13.12 13.12 0 0 1-3.84 2.88c-1.92 0-2.56 2.56-3.84 2.56h-3.52l-2.88 1.6a23.68 23.68 0 0 0-2.88 3.84s-1.92 2.88-1.92 3.52-2.24 0-2.24 3.2v3.84c0 0.64 2.24 0 3.2 0h2.88c0.96 0 2.56 2.56 2.24 3.2s0 0 0 1.92 2.24 0 2.24 0a12.8 12.8 0 0 1 0 4.8 9.6 9.6 0 0 1-2.56 3.84 32 32 0 0 0-3.52 5.76 53.44 53.44 0 0 0-1.6 5.76 28.48 28.48 0 0 1 0 4.8 25.28 25.28 0 0 1 0 4.16c0 2.24-1.6 2.88-1.6 4.48a32 32 0 0 1 0 5.44c0 1.92 0 2.88 1.6 4.16a4.8 4.8 0 0 1-2.24 4.16 16.64 16.64 0 0 0-4.16 1.92 6.4 6.4 0 0 1-2.56 2.56l-3.2 2.88-2.88 2.56c-2.88 2.56-1.6 0-3.52 0H718.08a24.32 24.32 0 0 0-2.56 6.4 26.24 26.24 0 0 1-1.92 8 29.12 29.12 0 0 0-2.24 8 35.84 35.84 0 0 1 0 6.72 21.44 21.44 0 0 1-2.88 4.48 5.12 5.12 0 0 0 1.6 5.12c1.92 1.92 2.88 3.84 4.48 3.84s1.6-1.6 2.88-1.92h3.2s2.56 0 3.2-1.6a13.44 13.44 0 0 1 5.76 0l5.12 1.92s2.24 0 3.2-2.24l2.56-3.84a19.2 19.2 0 0 1-4.48-2.88 2.88 2.88 0 0 1 3.52 0s2.88 3.2 4.8 3.84a8.64 8.64 0 0 1 4.8 2.88s0 2.24 1.92 2.56h4.8a7.36 7.36 0 0 1 3.84 2.56 37.76 37.76 0 0 1 2.56 5.12 13.44 13.44 0 0 1 0 5.12s0 3.2-2.24 3.52h-3.2a13.44 13.44 0 0 1-4.8 0h-3.52a14.72 14.72 0 0 0-5.12 0h-3.2l-2.56 1.6s-1.6 1.6-2.24 1.6h-4.16l-1.6 3.84a2.56 2.56 0 0 1-2.56 2.24h-4.48s-2.88 3.2-3.52 3.52a21.44 21.44 0 0 0-2.24 3.52v4.48a26.56 26.56 0 0 1-2.56 3.84l-3.52 3.2a11.84 11.84 0 0 1-4.48 2.24 28.48 28.48 0 0 1-4.48 0h-5.44c-1.6 0-3.52 2.56-5.12 4.8a15.68 15.68 0 0 1-2.56 4.16l-3.84 3.52s0 1.92-4.16 2.24a45.44 45.44 0 0 1-6.08 0h-10.56l-3.84-1.6h-4.48a61.44 61.44 0 0 0-3.84 8 41.6 41.6 0 0 0 0 4.8v5.44a39.04 39.04 0 0 1 6.08 3.84s2.88 5.12 0 6.4a22.08 22.08 0 0 0-5.12 3.84 4.48 4.48 0 0 1-2.56 0 8.32 8.32 0 0 0-4.16 1.92 16 16 0 0 0-3.2 3.52v3.84s-2.88 5.44-4.16 5.76a11.84 11.84 0 0 0-5.44 1.6l-3.52 2.24a6.08 6.08 0 0 1-2.88 0l-8 1.92H592.64l-10.88 5.12-7.04 2.24-7.04 3.2a19.52 19.52 0 0 1-5.76 2.56 9.6 9.6 0 0 0-4.48 2.56 1.92 1.92 0 0 1-2.24 0h-2.88c-2.88 0-4.16 0-3.84-1.92s0-2.56 0-2.24h-5.44H536.32l-10.88-4.8a3.52 3.52 0 0 0-2.88-1.6h-4.16a16 16 0 0 1-4.16 0s-3.84-2.56-4.16-3.52a3.52 3.52 0 0 0-2.56-2.56h-8.64l-7.68-1.28h-30.72l-15.68-2.88-5.12-1.6h-7.36a24.32 24.32 0 0 1-6.72 0s-3.52-2.24-3.52-3.2v-2.88l-2.24-2.88v-3.84-7.04c0-0.64-3.2-6.4-4.16-7.36a5.76 5.76 0 0 1 0-4.16s0-2.24-1.6-2.24h-3.84l-2.24-2.56a8.32 8.32 0 0 1-3.84-2.56l-3.2-3.84a24.32 24.32 0 0 0-4.48-3.52l-4.16-2.88-8.32-3.52a16 16 0 0 0-4.8 0 8.32 8.32 0 0 1-2.88 0 14.72 14.72 0 0 1-5.44-2.88h-8.32a23.36 23.36 0 0 0-6.72-1.92L352 320s-1.6 0-1.6-2.24-1.6-2.24-1.6-3.52v-2.88l2.24-3.2 0.96-5.12V300.8v-4.16a6.72 6.72 0 0 1 0-4.16s1.92-2.88 0-4.16-1.6-2.56-1.92-4.48l1.92-7.68a16.96 16.96 0 0 1 0-3.84 7.36 7.36 0 0 0 0-3.52v-3.52c0-0.64 0-1.92-1.92-2.56s-1.6 0-2.56 1.92-2.88 0-3.2-2.88 0-2.56-3.2-2.88a10.56 10.56 0 0 1-4.48 0 6.72 6.72 0 0 1-3.52-3.2c-1.6 0-2.56-1.92-2.24-3.52a11.2 11.2 0 0 1 0-1.92s-3.52-2.24-4.16-2.88a6.08 6.08 0 0 1 0-2.24 3.84 3.84 0 0 0 0-2.56s-1.92 0-1.6-2.24 0-2.88 0-2.88v-2.88h-15.36zM856.96 714.24l-3.52 3.52-5.12 3.52v4.16a72.96 72.96 0 0 1-3.52 6.72 96 96 0 0 0-5.12 11.84s-4.16 10.88-4.16 12.16a44.8 44.8 0 0 0 0 9.28 56.64 56.64 0 0 1 5.12 9.6s3.84 2.88 4.8 3.52a8.32 8.32 0 0 1 3.52 4.48 6.72 6.72 0 0 0 3.2 4.8c1.92 0 1.92-3.2 1.92-4.8s1.6-8.32 1.92-10.24a9.28 9.28 0 0 1 2.24-5.12 60.16 60.16 0 0 0 3.84-5.76 10.56 10.56 0 0 1 0-6.4v-8.64c0-3.2-1.92-5.44 0-7.36a17.28 17.28 0 0 0 4.16-7.36v-4.48a8 8 0 0 1 0-5.12l1.92-2.24v-3.2h-3.52z" fill="#C0C5D3" p-id="5719"></path></svg>