<?xml version="1.0" standalone="no"?><!DOCTYPE svg PUBLIC "-//W3C//DTD SVG 1.1//EN" "http://www.w3.org/Graphics/SVG/1.1/DTD/svg11.dtd"><svg t="1579481845219" class="icon" viewBox="0 0 1024 1024" version="1.1" xmlns="http://www.w3.org/2000/svg" p-id="6303" xmlns:xlink="http://www.w3.org/1999/xlink" width="200" height="200"><defs><style type="text/css"></style></defs><path d="M180 176h-60c-4.4 0-8 3.6-8 8v656c0 4.4 3.6 8 8 8h60c4.4 0 8-3.6 8-8V184c0-4.4-3.6-8-8-8zM904 176h-60c-4.4 0-8 3.6-8 8v656c0 4.4 3.6 8 8 8h60c4.4 0 8-3.6 8-8V184c0-4.4-3.6-8-8-8zM785.3 504.3L657.7 403.6c-4.7-3.7-11.7-0.4-11.7 5.7V476H378v-62.8c0-6-7-9.4-11.7-5.7L238.7 508.3c-3.7 2.9-3.7 8.5 0 11.3l127.5 100.8c4.7 3.7 11.7 0.4 11.7-5.7V548h268v62.8c0 6 7 9.4 11.7 5.7l127.5-100.8c3.8-2.9 3.8-8.5 0.2-11.4z" p-id="6304"></path></svg>