<?xml version="1.0" standalone="no"?><!DOCTYPE svg PUBLIC "-//W3C//DTD SVG 1.1//EN" "http://www.w3.org/Graphics/SVG/1.1/DTD/svg11.dtd"><svg t="1578988451443" class="icon" viewBox="0 0 1024 1024" version="1.1" xmlns="http://www.w3.org/2000/svg" p-id="2075" xmlns:xlink="http://www.w3.org/1999/xlink" width="200" height="200"><defs><style type="text/css"></style></defs><path d="M405.2992 163.9424H225.28c-33.8944 0-61.44 27.5456-61.44 61.44v180.0192c0 33.8944 27.5456 61.44 61.44 61.44h180.0192c33.8944 0 61.44-27.5456 61.44-61.44V225.3824c0-33.8944-27.5456-61.44-61.44-61.44z m20.48 241.4592c0 11.264-9.216 20.48-20.48 20.48H225.28c-11.264 0-20.48-9.216-20.48-20.48V225.3824c0-11.264 9.216-20.48 20.48-20.48h180.0192c11.264 0 20.48 9.216 20.48 20.48v180.0192zM405.2992 557.1584H225.28c-33.8944 0-61.44 27.5456-61.44 61.44v180.0192c0 33.8944 27.5456 61.44 61.44 61.44h180.0192c33.8944 0 61.44-27.5456 61.44-61.44V618.5984c0-33.792-27.5456-61.44-61.44-61.44z m20.48 241.4592c0 11.264-9.216 20.48-20.48 20.48H225.28c-11.264 0-20.48-9.216-20.48-20.48V618.5984c0-11.264 9.216-20.48 20.48-20.48h180.0192c11.264 0 20.48 9.216 20.48 20.48v180.0192zM798.72 163.9424H618.7008c-33.8944 0-61.44 27.5456-61.44 61.44v180.0192c0 33.8944 27.5456 61.44 61.44 61.44H798.72c33.8944 0 61.44-27.5456 61.44-61.44V225.3824c0-33.8944-27.5456-61.44-61.44-61.44z m20.48 241.4592c0 11.264-9.216 20.48-20.48 20.48H618.7008c-11.264 0-20.48-9.216-20.48-20.48V225.3824c0-11.264 9.216-20.48 20.48-20.48H798.72c11.264 0 20.48 9.216 20.48 20.48v180.0192zM798.72 557.1584H618.7008c-33.8944 0-61.44 27.5456-61.44 61.44v180.0192c0 33.8944 27.5456 61.44 61.44 61.44H798.72c33.8944 0 61.44-27.5456 61.44-61.44V618.5984c0-33.792-27.5456-61.44-61.44-61.44z m20.48 241.4592c0 11.264-9.216 20.48-20.48 20.48H618.7008c-11.264 0-20.48-9.216-20.48-20.48V618.5984c0-11.264 9.216-20.48 20.48-20.48H798.72c11.264 0 20.48 9.216 20.48 20.48v180.0192z" p-id="2076"></path></svg>