<?xml version="1.0" standalone="no"?><!DOCTYPE svg PUBLIC "-//W3C//DTD SVG 1.1//EN" "http://www.w3.org/Graphics/SVG/1.1/DTD/svg11.dtd"><svg t="1579070692133" class="icon" viewBox="0 0 1024 1024" version="1.1" xmlns="http://www.w3.org/2000/svg" p-id="2976" xmlns:xlink="http://www.w3.org/1999/xlink" width="200" height="200"><defs><style type="text/css"></style></defs><path d="M91.648384 400.390457c15.454602 0 27.996649-12.551078 27.996648-27.996648v-156.397407L365.830401 462.184028a27.931173 27.931173 0 0 0 19.79634 8.202566c7.170755 0 14.334736-2.734189 19.809886-8.202566 10.929982-10.936755 10.929982-28.653667 0-39.590422L159.249001 176.403722h156.381603c15.468148 0 27.996649-12.551078 27.996648-27.996649 0-15.447828-12.5285-27.998906-27.996648-27.998906H91.648384c-15.454602 0-27.998906 12.551078-27.998907 27.998906v223.986736c0 15.44557 12.544305 27.996649 27.998907 27.996648M91.655157 904.359483H315.639635c15.454602 0 27.996649-12.551078 27.996648-27.998906s-12.542047-27.996649-27.996648-27.996649H159.242228L405.429854 602.176302c10.929982-10.936755 10.929982-28.653667 0-39.590422-10.923209-10.936755-28.669471-10.936755-39.606227 0L119.651806 808.771248v-156.397407c0-15.447828-12.542047-27.996649-27.996649-27.996648-15.470406 0-27.998906 12.551078-27.998906 27.996648v223.984478c0 15.450086 12.544305 28.001164 27.998906 28.001164M931.586224 624.377193c-15.447828 0-27.996649 12.551078-27.996649 27.996648v156.397407L657.404207 562.583622c-10.923209-10.936755-28.653667-10.936755-39.590422 0-10.939013 10.936755-10.939013 28.653667 0 39.590422l246.185368 246.187626h-156.395149c-15.450086 0-27.998906 12.551078-27.998906 27.996649 0 15.450086 12.551078 27.998906 27.998906 27.998906h223.98222c15.474922 0 27.996649-12.551078 27.996649-27.998906v-223.984478c0.002258-15.44557-12.546563-27.996649-27.996649-27.996648M931.586224 120.408167h-223.98222c-15.450086 0-27.998906 12.551078-27.998906 27.998906s12.551078 27.996649 27.998906 27.996649h156.395149L617.813785 422.591348c-10.923209 10.936755-10.923209 28.653667 0 39.590422a27.908595 27.908595 0 0 0 19.79634 8.202567 27.861181 27.861181 0 0 0 19.79634-8.202567L903.589575 215.996402v156.397407c0 15.447828 12.535274 27.996649 27.996649 27.996648s27.996649-12.551078 27.996649-27.996648V148.407073c0.002258-15.447828-12.533016-27.998906-27.996649-27.998906" fill="#040000" p-id="2977"></path></svg>