<?xml version="1.0" standalone="no"?><!DOCTYPE svg PUBLIC "-//W3C//DTD SVG 1.1//EN" "http://www.w3.org/Graphics/SVG/1.1/DTD/svg11.dtd"><svg t="1579481953618" class="icon" viewBox="0 0 1024 1024" version="1.1" xmlns="http://www.w3.org/2000/svg" p-id="3177" xmlns:xlink="http://www.w3.org/1999/xlink" width="200" height="200"><defs><style type="text/css"></style></defs><path d="M512 960c-41.63 0-75.49-33.86-75.49-75.49v-27.36c-41.12-8.93-79.74-24.93-115.18-47.73l-19.37 19.36c-14.2 14.21-33.17 22.04-53.38 22.04s-39.17-7.83-53.38-22.04c-14.22-14.21-22.04-33.17-22.04-53.38s7.82-39.16 22.04-53.38l19.35-19.36c-22.8-35.46-38.8-74.09-47.72-115.18h-27.36C97.86 587.49 64 553.62 64 512c0-41.63 33.86-75.49 75.49-75.49h27.36c8.92-41.09 24.92-79.72 47.72-115.18l-19.35-19.36c-14.22-14.21-22.04-33.17-22.04-53.38s7.82-39.16 22.04-53.38c14.2-14.21 33.17-22.04 53.38-22.04s39.17 7.83 53.38 22.04l19.37 19.36c35.42-22.8 74.06-38.8 115.18-47.73v-27.36C436.51 97.86 470.37 64 512 64s75.49 33.86 75.49 75.49v27.37c41.12 8.92 79.74 24.92 115.18 47.72l19.35-19.36c29.45-29.43 77.32-29.43 106.77 0 29.43 29.43 29.43 77.32 0 106.75l-19.37 19.37c22.8 35.43 38.8 74.06 47.72 115.17h27.36c41.63 0 75.5 33.86 75.5 75.49 0 41.62-33.87 75.49-75.5 75.49h-27.36c-8.92 41.11-24.92 79.74-47.72 115.17l19.37 19.37c29.43 29.43 29.43 77.32 0 106.75-29.45 29.43-77.32 29.43-106.77 0l-19.35-19.36c-35.44 22.8-74.07 38.8-115.18 47.72v27.37c0 41.63-33.86 75.49-75.49 75.49zM319.18 769.97c3.45 0 6.92 1.03 9.89 3.13 38.48 27.01 81.43 44.8 127.63 52.89 8.25 1.44 14.27 8.6 14.27 16.97v41.55c0 22.62 18.41 41.03 41.02 41.03 22.62 0 41.02-18.41 41.02-41.03v-41.55c0-8.37 6.02-15.53 14.27-16.97 46.19-8.09 89.13-25.88 127.63-52.89 6.83-4.8 16.17-4 22.08 1.92l29.38 29.39c15.99 16 42.05 15.97 58.04 0 15.99-15.99 15.99-42.03 0-58.02L775.02 717c-5.92-5.91-6.73-15.23-1.92-22.09 27.01-38.47 44.81-81.42 52.87-127.62 1.45-8.25 8.6-14.27 16.98-14.27h41.55c22.63 0 41.04-18.4 41.04-41.02 0-22.62-18.41-41.03-41.04-41.03h-41.55c-8.38 0-15.53-6.02-16.98-14.27-8.06-46.21-25.86-89.15-52.87-127.62-4.81-6.86-4-16.17 1.92-22.09l29.4-29.39c15.99-15.99 15.99-42.03 0-58.02s-42.05-15.98-58.04 0L717 248.97c-5.91 5.92-15.25 6.74-22.08 1.92-38.48-27.01-81.43-44.8-127.63-52.89-8.25-1.44-14.27-8.6-14.27-16.97v-41.55c0-22.62-18.41-41.02-41.02-41.02-22.62 0-41.02 18.4-41.02 41.02v41.55c0 8.37-6.02 15.53-14.27 16.97-46.22 8.09-89.17 25.88-127.62 52.89-6.83 4.82-16.17 4.02-22.09-1.92l-29.4-29.39c-15.41-15.41-42.61-15.41-58.02 0-7.71 7.71-11.95 18-11.95 29.01 0 11 4.24 21.3 11.95 29.01l29.38 29.39c5.92 5.91 6.73 15.23 1.92 22.08-27.02 38.52-44.81 81.46-52.87 127.63-1.45 8.25-8.6 14.27-16.98 14.27h-41.55c-22.62 0-41.02 18.41-41.02 41.03s18.41 41.02 41.02 41.02h41.55c8.38 0 15.53 6.02 16.98 14.27 8.06 46.17 25.85 89.12 52.87 127.63 4.81 6.85 4 16.16-1.92 22.08l-29.38 29.39c-7.71 7.71-11.95 18-11.95 29.01 0 11 4.24 21.3 11.95 29.01 15.41 15.41 42.61 15.41 58.02 0l29.4-29.39c3.33-3.34 7.74-5.05 12.18-5.05zM512 684.31c-95 0-172.31-77.29-172.31-172.31S417 339.69 512 339.69 684.31 416.99 684.31 512 607 684.31 512 684.31z m0-310.16c-76.01 0-137.85 61.84-137.85 137.85S435.99 649.85 512 649.85 649.85 588.01 649.85 512 588.01 374.15 512 374.15z" p-id="3178"></path></svg>