<?xml version="1.0" standalone="no"?><!DOCTYPE svg PUBLIC "-//W3C//DTD SVG 1.1//EN" "http://www.w3.org/Graphics/SVG/1.1/DTD/svg11.dtd"><svg t="1579482044684" class="icon" viewBox="0 0 1024 1024" version="1.1" xmlns="http://www.w3.org/2000/svg" p-id="5105" xmlns:xlink="http://www.w3.org/1999/xlink" width="200" height="200"><defs><style type="text/css"></style></defs><path d="M513.34 831.74C337.03 831.74 193.6 688.31 193.6 512c0-71.09 23.31-138.85 65.53-194.03v51.61c0 17.67 14.33 32 32 32s32-14.33 32-32V239.45c0-5.87-1.59-11.36-4.34-16.09-0.06-0.1-0.11-0.2-0.17-0.3-0.16-0.28-0.34-0.55-0.51-0.82-0.13-0.2-0.26-0.41-0.39-0.61-0.08-0.13-0.17-0.25-0.26-0.37a35.5 35.5 0 0 0-1.58-2.13c-6.81-8.35-16.96-12.35-26.95-11.69h-130c-17.67 0-32 14.33-32 32s14.33 32 32 32h55.35C159.8 339 129.6 423.35 129.6 512c0 51.79 10.15 102.05 30.17 149.38 19.33 45.7 46.99 86.74 82.23 121.97 35.23 35.23 76.27 62.9 121.97 82.23 47.33 20.02 97.59 30.17 149.38 30.17 17.67 0 32-14.33 32-32s-14.34-32.01-32.01-32.01zM855.38 762.3h-51.23c19.81-23 36.93-48.3 50.75-75.22 27.6-53.74 42.18-114.28 42.18-175.08 0-51.79-10.15-102.05-30.17-149.38-19.33-45.7-46.99-86.73-82.23-121.97-35.23-35.23-76.27-62.9-121.97-82.23-47.33-20.02-97.59-30.17-149.38-30.17-17.67 0-32 14.33-32 32s14.33 32 32 32c176.31 0 319.74 143.44 319.74 319.74 0 78.31-27.68 151.61-77.6 209.05l0.24-56.04c0.08-17.67-14.19-32.06-31.86-32.14h-0.14c-17.61 0-31.92 14.24-32 31.86l-0.55 129.43a31.988 31.988 0 0 0 9.32 22.71 31.68 31.68 0 0 0 5.33 4.3c0.02 0.01 0.04 0.02 0.06 0.04 0.48 0.31 0.97 0.61 1.47 0.89l0.15 0.09c0.5 0.28 1 0.54 1.51 0.8 0.03 0.01 0.05 0.03 0.08 0.04 1.64 0.8 3.34 1.46 5.1 1.98 0.01 0 0.02 0.01 0.03 0.01 0.55 0.16 1.1 0.3 1.66 0.43 0.07 0.02 0.15 0.03 0.22 0.05 0.5 0.11 1 0.21 1.5 0.3 0.1 0.02 0.2 0.04 0.3 0.05 0.48 0.08 0.96 0.15 1.44 0.21 0.11 0.01 0.23 0.03 0.34 0.04 0.48 0.05 0.95 0.09 1.43 0.12l0.34 0.03c0.53 0.03 1.07 0.04 1.61 0.05h132.31c17.67 0 32-14.33 32-32s-14.31-31.99-31.98-31.99z" p-id="5106"></path></svg>