<?xml version="1.0" standalone="no"?><!DOCTYPE svg PUBLIC "-//W3C//DTD SVG 1.1//EN" "http://www.w3.org/Graphics/SVG/1.1/DTD/svg11.dtd"><svg t="1633759756242" class="icon" viewBox="0 0 1024 1024" version="1.1" xmlns="http://www.w3.org/2000/svg" p-id="3145" xmlns:xlink="http://www.w3.org/1999/xlink" width="200" height="200"><defs><style type="text/css"></style></defs><path d="M821.6 120.93333333H195.4c-74.1 0-134.2 60.1-134.2 134.2v492c0 74.1 60.1 134.2 134.2 134.2h626.2c74.1 0 134.2-60.1 134.2-134.2v-492c0-74.1-60.1-134.2-134.2-134.2zM251.3 255.13333333c30.9 0 55.9 25 55.9 55.9s-25 55.9-55.9 55.9-55.9-25-55.9-55.9 25-55.9 55.9-55.9z m614.6 559.1H153.3c-37.3 0-58.2-43.1-35.1-72.4L302.1 508.33333333c17.9-22.7 52.4-22.7 70.3 0l76.5 97.2 148.6-260c17.2-30.1 60.5-30.1 77.7 0L904.8 747.33333333c17 29.8-4.5 66.9-38.9 66.9z" fill="#A1A0A5" p-id="3146"></path></svg>