<?xml version="1.0" standalone="no"?><!DOCTYPE svg PUBLIC "-//W3C//DTD SVG 1.1//EN" "http://www.w3.org/Graphics/SVG/1.1/DTD/svg11.dtd"><svg t="1744253906048" class="icon" viewBox="0 0 1127 1024" version="1.1" xmlns="http://www.w3.org/2000/svg" p-id="2691" xmlns:xlink="http://www.w3.org/1999/xlink" ><path d="M1074.12176 136.4v0.7l-0.5-0.3 0.5-0.4zM1020.82176 170v0.6l-0.5-0.3 0.5-0.3z m0 0" p-id="2692"></path><path d="M1127.52176 95.9v0.8l-0.6-0.3 0.6-0.5z m-59 37.2v0.7l-0.6-0.3 0.6-0.4z m0 0M645.52176 963.3c-72.2 0.1-131.6-56.9-134.3-129V690.9c2.7-72.2 62-129.3 134.3-129.3h7.3c10.6 0.2 20.6 4.9 27.7 13 9.1 10.7 11.1 25.8 5.1 38.5S666.92176 634 652.82176 634h-0.3c-16.1-1-31.9 4.4-44 15.2a60.444 60.444 0 0 0-20.3 41.9v142.8c1.3 32 27.7 57.1 59.7 57.1h244.6l2-20c1.1-31 26.6-55.7 57.7-55.6 7.5-0.1 15.1 1 22.3 3.3l73.6 25.7V680.9l-73.3 25.5c-6.6 2.4-13.7 3.7-20.8 3.7-24 0-45.7-14.1-55.6-36-2.5-6.1-3.9-12.6-4-19.3V636l-104.5-1.6c-19-1.9-33.4-18.3-32.7-37.4 0.8-19.2 16.5-34.3 35.7-34.7h99.7c40.1-1.1 74.3 28.8 78.5 68.7l70-24.3c6.9-2.3 14-3.5 21.1-3.5 32.9-1.1 60.7 24.1 62.8 56.9V864c0 7-1.3 14-4 20.5-6.1 14.8-17.8 26.7-32.7 32.7-15.1 6.3-31.9 6.9-47.4 1.6l-70-24.3c-1.3 18.2-9.6 35-23 47.3-14.9 13.7-34.7 21.4-55 21.4l-247.4 0.1z" p-id="2693"></path><path d="M297.42176 949.8C196.52176 949.1 103.12176 895.9 50.92176 809.4c-44.4-70.9-60.6-155.7-45.3-237.9 13.8-81.3 58.6-153.9 125-202.7 40.3-29.7 87.8-48.1 137.6-53.4 41.5-97.4 117.8-176 214.1-220.1 101-46.4 217-47.2 318.7-2.1 160.3 73.6 261.9 235.3 258.7 411.8 0.8 19.5-10.9 37.4-28.9 44.7-18.1 7.3-38.9 2.4-51.8-12.1-8.2-9.1-12.5-21.1-11.7-33.4 2.3-137.6-76.8-263.8-201.9-321.2-78.6-34.7-168.3-34-246.4 1.9C455.52176 214 403.12176 262.5 368.82176 323.3c72.9 19.7 135.5 66.6 175 131 14 22 8.6 51.2-12.1 66.9-7.7 5.5-17.1 8.5-26.6 8.7-15.8-0.1-30.5-8.4-38.6-21.9-29-47.3-76.1-80.6-130.2-92.5-53.4-11.2-109.1 1-152.9 33.4-46.1 33.8-77.2 84.3-86.7 140.6C85.92176 647 97.12176 706.1 128.12176 755.4c35.8 59.6 100 96.1 169.4 96.7h101.2c26 1.1 46.7 22.5 46.8 48.5 0.2 26.1-20.2 47.7-46.2 49.2h-102z" p-id="2694"></path></svg>
