<?xml version="1.0" standalone="no"?><!DOCTYPE svg PUBLIC "-//W3C//DTD SVG 1.1//EN" "http://www.w3.org/Graphics/SVG/1.1/DTD/svg11.dtd"><svg t="1751337772774" class="icon" viewBox="0 0 1024 1024" version="1.1" xmlns="http://www.w3.org/2000/svg" p-id="19666" id="mx_n_1751337772775" xmlns:xlink="http://www.w3.org/1999/xlink" ><path d="M793.6 128a38.4 38.4 0 0 1 38.4 38.4v46.912h110.912a38.4 38.4 0 0 1 38.4 38.4V806.4a38.4 38.4 0 0 1-38.4 38.4L832 844.736v46.976a38.4 38.4 0 0 1-38.4 38.4H238.912a38.4 38.4 0 0 1-38.4-38.4V844.8L89.6 844.8a38.4 38.4 0 0 1-38.4-38.4V251.712a38.4 38.4 0 0 1 38.4-38.4h110.912V166.4a38.4 38.4 0 0 1 38.4-38.4H793.6z m-38.4 76.8H277.248v648.512H755.2V204.8zM200.448 290.112H128V768h72.512V290.112z m704 0H832V768h72.512V290.112z m-443.392 103.04l192 128a35.2 35.2 0 0 1 0 58.56l-192 128a35.2 35.2 0 0 1-54.72-29.312v-256c0-28.16 31.36-44.864 54.72-29.312z m15.68 94.976v124.48L570.112 550.4 476.8 488.128z" p-id="19667"></path></svg>
