<?xml version="1.0" standalone="no"?><!DOCTYPE svg PUBLIC "-//W3C//DTD SVG 1.1//EN" "http://www.w3.org/Graphics/SVG/1.1/DTD/svg11.dtd"><svg t="1751336642026" class="icon" viewBox="0 0 1024 1024" version="1.1" xmlns="http://www.w3.org/2000/svg" p-id="4525" xmlns:xlink="http://www.w3.org/1999/xlink" ><path d="M185.6 723.2v89.6h652.8v-89.6H185.6z m-6.4-64h665.6c31.7952 0 57.6 25.8048 57.6 57.6v102.4c0 31.7952-25.8048 57.6-57.6 57.6h-665.6A57.6 57.6 0 0 1 121.6 819.2v-102.4c0-31.7952 25.8048-57.6 57.6-57.6zM185.6 211.2v294.4h448v-294.4h-448zM179.2 147.2h460.8c31.7952 0 57.6 25.8048 57.6 57.6v307.2c0 31.7952-25.8048 57.6-57.6 57.6h-460.8A57.6 57.6 0 0 1 121.6 512V204.8c0-31.7952 25.8048-57.6 57.6-57.6z" p-id="4526"></path><path d="M697.6 415.4368l140.8 70.4V230.912l-140.8 70.4v114.0736z m121.4464-246.3232a57.6 57.6 0 0 1 83.3536 51.5072v275.5584a57.6 57.6 0 0 1-83.3536 51.5072l-185.4464-92.672V261.7856l185.4464-92.7232z" fill="#5A5A68" p-id="4527"></path></svg>
