<?xml version="1.0" standalone="no"?><!DOCTYPE svg PUBLIC "-//W3C//DTD SVG 1.1//EN" "http://www.w3.org/Graphics/SVG/1.1/DTD/svg11.dtd"><svg t="1743060304116" class="icon" viewBox="0 0 1024 1024" version="1.1" xmlns="http://www.w3.org/2000/svg" p-id="45090" xmlns:xlink="http://www.w3.org/1999/xlink" ><path d="M868 96H156c-33.1 0-60 26.9-60 60v712c0 33.1 26.9 60 60 60h712c33.1 0 60-26.9 60-60V156c0-33.1-26.9-60-60-60zM743.5 691.3c-20.9 20.3-51.3 38.1-91 53.5-39.7 15.4-80 23.1-120.7 23.1-51.8 0-96.9-10.9-135.4-32.6-38.5-21.7-67.4-52.8-86.8-93.2-19.4-40.4-29-84.4-29-131.9 0-51.6 10.8-97.4 32.4-137.5 21.6-40.1 53.2-70.8 94.9-92.2 31.7-16.4 71.3-24.7 118.5-24.7 61.5 0 109.5 12.9 144 38.7 34.6 25.8 56.8 61.4 66.7 106.9L637.8 420c-7-24.3-20.1-43.5-39.3-57.6-19.3-14.1-43.3-21.1-72.1-21.1-43.7 0-78.4 13.8-104.2 41.5-25.8 27.7-38.7 68.8-38.7 123.3 0 58.8 13.1 102.8 39.2 132.2 26.1 29.4 60.3 44.1 102.7 44.1 20.9 0 41.9-4.1 63-12.3 21-8.2 39.1-18.2 54.2-29.9v-62.8H528V494h215.5v197.3z" p-id="45091"></path></svg>
