<?xml version="1.0" standalone="no"?><!DOCTYPE svg PUBLIC "-//W3C//DTD SVG 1.1//EN" "http://www.w3.org/Graphics/SVG/1.1/DTD/svg11.dtd"><svg t="1743473861908" class="icon" viewBox="0 0 1024 1024" version="1.1" xmlns="http://www.w3.org/2000/svg" p-id="3656" xmlns:xlink="http://www.w3.org/1999/xlink" ><path d="M863.008 384C916.576 384 960 341.024 960 288V160c0-53.024-43.424-96-96.992-96H160.992C107.424 64 64 106.976 64 160v128c0 53.024 43.424 96 96.992 96H320v128a32 32 0 0 0 32 32h288v96H160.992C107.424 640 64 682.976 64 736v128c0 53.024 43.424 96 96.992 96h702.016C916.576 960 960 917.024 960 864v-128c0-53.024-43.424-96-96.992-96H704v-128a32 32 0 0 0-32-32h-288v-96h479.008z m0 320c17.856 0 32.32 14.336 32.32 32v128c0 17.664-14.464 32-32.32 32H160.992c-17.856 0-32.32-14.336-32.32-32v-128c0-17.664 14.464-32 32.32-32h702.016zM128.672 288V160c0-17.664 14.464-32 32.32-32h702.016c17.856 0 32.32 14.336 32.32 32v128c0 17.664-14.464 32-32.32 32H160.992c-17.856 0-32.32-14.336-32.32-32z" p-id="3657"></path><path d="M320 832h384a32 32 0 0 0 0-64H320a32 32 0 0 0 0 64zM736 224a32 32 0 0 0-32-32H320a32 32 0 0 0 0 64h384a32 32 0 0 0 32-32z" p-id="3658"></path></svg>
