<?xml version="1.0" standalone="no"?><!DOCTYPE svg PUBLIC "-//W3C//DTD SVG 1.1//EN" "http://www.w3.org/Graphics/SVG/1.1/DTD/svg11.dtd"><svg t="1744984386773" class="icon" viewBox="0 0 1024 1024" version="1.1" xmlns="http://www.w3.org/2000/svg" p-id="2809" xmlns:xlink="http://www.w3.org/1999/xlink" ><path d="M927.44064 56.064967A191.149846 191.149846 0 1 0 983.35197 191.303483a189.95516 189.95516 0 0 0-55.91133-135.238516zM792.202123 334.665867a143.362385 143.362385 0 1 1 143.362385-143.362384 143.362385 143.362385 0 0 1-143.362385 143.362384z" p-id="2810"></path><path d="M210.389779 1024h-11.230053a169.884426 169.884426 0 0 1-158.176498-169.884426V163.825692A169.406551 169.406551 0 0 1 210.389779 5.410257H515.990596a33.929098 33.929098 0 0 1 33.929097 33.929098 34.168035 34.168035 0 0 1-33.929097 33.929098H200.59335A101.548356 101.548356 0 0 0 108.602486 174.577871v689.334133A101.548356 101.548356 0 0 0 209.911905 955.902867h553.378804a101.787293 101.787293 0 0 0 92.229801-101.309418V480.656562a33.69016 33.69016 0 0 1 33.929098-33.929097 33.929098 33.929098 0 0 1 33.929097 33.929097v384.689066a169.645488 169.645488 0 0 1-169.406551 158.654372z" p-id="2811"></path><path d="M293.539962 565.240369h376.565197v57.822829H293.539962zM294.495712 405.869185h202.857774v57.822829h-202.857774zM770.219891 88.082566h28.672477V186.524737h-28.672477z" p-id="2812"></path><path d="M770.219891 185.091113h134.521704v28.672477h-134.521704z" fill="#040000" p-id="2813"></path></svg>
