<?xml version="1.0" standalone="no"?><!DOCTYPE svg PUBLIC "-//W3C//DTD SVG 1.1//EN" "http://www.w3.org/Graphics/SVG/1.1/DTD/svg11.dtd"><svg t="1746918194106" class="icon" viewBox="0 0 1024 1024" version="1.1" xmlns="http://www.w3.org/2000/svg" p-id="9149" xmlns:xlink="http://www.w3.org/1999/xlink" ><path d="M893.612371 819.374576l-21.278629-614.998839c0-55.031361-47.635927-99.639325-106.394169-99.639325L255.245312 104.736413c-58.759265 0-106.393145 44.608987-106.393145 99.639325L127.572514 819.374576l73.747631 0c-0.535189 2.812045-0.873903 5.697769-0.873903 8.667404l0 20.224624c0 25.529443 20.695345 46.225811 46.225811 46.225811l66.451458 0c25.532513 0 46.227858-20.697391 46.227858-46.225811L359.351368 828.04198c0-2.968611-0.338714-5.854335-0.873903-8.667404l304.232003 0c-0.535189 2.812045-0.873903 5.697769-0.873903 8.667404l0 20.224624c0 25.529443 20.696368 46.225811 46.227858 46.225811l66.451458 0c25.530466 0 46.227858-20.697391 46.227858-46.225811L820.742736 828.04198c0-2.968611-0.338714-5.854335-0.873903-8.667404L893.612371 819.374576zM258.868839 723.007785c-32.264844 0-58.422597-26.157753-58.422597-58.424644 0-32.266891 26.157753-58.424644 58.422597-58.424644 32.268938 0 58.424644 26.157753 58.424644 58.424644C317.293483 696.850032 291.137777 723.007785 258.868839 723.007785zM217.490429 510.921435l7.91732-252.475222c0-55.682183 20.277836-77.706803 71.538313-77.706803l427.009304 0c51.260477 0 71.538313 22.024619 71.538313 77.706803l8.201799 252.475222L217.490429 510.921435zM762.316046 723.007785c-32.266891 0-58.424644-26.157753-58.424644-58.424644 0-32.266891 26.157753-58.424644 58.424644-58.424644 32.266891 0 58.424644 26.157753 58.424644 58.424644C820.74069 696.850032 794.582937 723.007785 762.316046 723.007785z" p-id="9150"></path></svg>
