<?xml version="1.0" standalone="no"?><!DOCTYPE svg PUBLIC "-//W3C//DTD SVG 1.1//EN" "http://www.w3.org/Graphics/SVG/1.1/DTD/svg11.dtd"><svg t="1749698203079" class="icon" viewBox="0 0 1024 1024" version="1.1" xmlns="http://www.w3.org/2000/svg" p-id="11388" xmlns:xlink="http://www.w3.org/1999/xlink" ><path d="M219.322182 774.144a46.545455 46.545455 0 0 1 18.990545 60.276364l-1.698909 3.234909L196.584727 907.636364H844.8l-44.264727-67.584a46.545455 46.545455 0 0 1 75.659636-54.109091l2.210909 3.095272 44.288 67.584a93.090909 93.090909 0 0 1-73.239273 143.988364l-4.654545 0.116364H196.608a93.090909 93.090909 0 0 1-83.153455-134.958546l2.327273-4.352 40.029091-69.981091a46.545455 46.545455 0 0 1 63.511273-17.291636zM523.636364 46.545455C722.897455 46.545455 884.363636 208.709818 884.363636 408.622545c0 128.930909-102.679273 269.521455-303.127272 427.380364a93.137455 93.137455 0 0 1-115.316364-0.093091l-10.216727-8.098909C262.120727 673.326545 162.909091 535.365818 162.909091 408.622545 162.909091 208.709818 324.375273 46.545455 523.636364 46.545455z m0 93.090909C375.854545 139.636364 256 260.026182 256 408.622545c0 87.389091 78.196364 199.354182 238.778182 331.031273l18.874182 15.290182 9.984 7.912727 9.728-7.703272C706.839273 616.727273 791.272727 499.432727 791.272727 408.622545 791.272727 260.026182 671.418182 139.636364 523.636364 139.636364z m0 162.909091a104.727273 104.727273 0 1 1 0 209.454545 104.727273 104.727273 0 0 1 0-209.454545z" p-id="11389"></path></svg>
