<?xml version="1.0" standalone="no"?><!DOCTYPE svg PUBLIC "-//W3C//DTD SVG 1.1//EN" "http://www.w3.org/Graphics/SVG/1.1/DTD/svg11.dtd"><svg t="1743427221665" class="icon" viewBox="0 0 1024 1024" version="1.1" xmlns="http://www.w3.org/2000/svg" p-id="11482" xmlns:xlink="http://www.w3.org/1999/xlink" ><path d="M853.312 85.312c44.352 0 80.832 33.92 84.992 77.12l0.384 8.256v682.624c0 44.352-33.92 80.832-77.12 84.992l-8.256 0.384H170.688a85.312 85.312 0 0 1-84.992-77.12l-0.384-8.256V170.688c0-44.352 33.92-80.832 77.12-84.992l8.256-0.384h682.624zM345.6 162.112H170.688a8.512 8.512 0 0 0-8.32 6.4l-0.256 2.176v682.624c0 3.84 2.496 7.04 5.888 8.128l2.688 0.448h174.848V161.984z m256 0H422.4v699.712h179.2V162.048z m251.776 0H678.4v699.712h174.976a8.512 8.512 0 0 0 8.128-5.76l0.448-2.752V170.688a8.512 8.512 0 0 0-8.576-8.576z m-59.712 501.376a38.4 38.4 0 1 1 0 76.8h-51.2a38.4 38.4 0 0 1 0-76.8h51.2z m-512 0a38.4 38.4 0 1 1 0 76.8h-51.2a38.4 38.4 0 0 1 0-76.8h51.2z m512-192a38.4 38.4 0 0 1 0 76.8h-51.2a38.4 38.4 0 0 1 0-76.8h51.2z m-512 0a38.4 38.4 0 1 1 0 76.8h-51.2a38.4 38.4 0 1 1 0-76.8h51.2z m512-192a38.4 38.4 0 0 1 0 76.8h-51.2a38.4 38.4 0 0 1 0-76.8h51.2z m-512 0a38.4 38.4 0 1 1 0 76.8h-51.2a38.4 38.4 0 1 1 0-76.8h51.2z" p-id="11483"></path></svg>
