<?xml version="1.0" standalone="no"?><!DOCTYPE svg PUBLIC "-//W3C//DTD SVG 1.1//EN" "http://www.w3.org/Graphics/SVG/1.1/DTD/svg11.dtd"><svg t="1744767017731" class="icon" viewBox="0 0 1152 1024" version="1.1" xmlns="http://www.w3.org/2000/svg" p-id="6075" xmlns:xlink="http://www.w3.org/1999/xlink" ><path d="M576 631.168c-12.16 0-24.192-2.752-34.944-8L40.512 378.112A70.08 70.08 0 0 1 0 315.584c0-26.24 15.616-50.304 40.512-62.528L540.992 8.064a80.256 80.256 0 0 1 70.08 0l500.48 244.992c24.832 12.16 40.448 36.288 40.448 62.528 0 26.24-15.616 50.368-40.512 62.528l-500.48 245.056c-10.816 5.248-22.784 8-35.008 8z m-0.768 200.512c-18.688 0-37.184-4.224-53.76-12.352L58.88 592.768a44.032 44.032 0 0 1-26.048-37.376 43.328 43.328 0 0 1 22.144-39.488 49.92 49.92 0 0 1 47.616-1.216l462.592 226.56a23.104 23.104 0 0 0 20.224 0l462.528-226.56a49.92 49.92 0 0 1 47.68 1.216 43.328 43.328 0 0 1 22.144 39.488 44.032 44.032 0 0 1-26.112 37.312l-462.464 226.56c-16.64 8.192-35.2 12.416-53.952 12.416z m0 192.32c-18.752 0-37.248-4.288-53.824-12.416L58.88 785.024a44.032 44.032 0 0 1-26.048-37.312 43.328 43.328 0 0 1 22.144-39.552 49.92 49.92 0 0 1 47.616-1.152l462.592 226.56a23.104 23.104 0 0 0 20.16 0l462.592-226.56a49.92 49.92 0 0 1 47.68 1.152 43.328 43.328 0 0 1 22.144 39.552 44.032 44.032 0 0 1-26.112 37.312l-462.464 226.56c-16.64 8.192-35.136 12.416-53.888 12.416z" p-id="6076"></path></svg>
