<?xml version="1.0" standalone="no"?><!DOCTYPE svg PUBLIC "-//W3C//DTD SVG 1.1//EN" "http://www.w3.org/Graphics/SVG/1.1/DTD/svg11.dtd"><svg t="1744984585676" class="icon" viewBox="0 0 1024 1024" version="1.1" xmlns="http://www.w3.org/2000/svg" p-id="8824" xmlns:xlink="http://www.w3.org/1999/xlink" ><path d="M981.333333 85.333333a42.666667 42.666667 0 0 1 42.666667 42.666667v768a128 128 0 0 1-128 128H128a128 128 0 0 1-128-128V128a42.666667 42.666667 0 1 1 85.333333 0v768a42.666667 42.666667 0 0 0 42.666667 42.666667h768a42.666667 42.666667 0 0 0 42.666667-42.666667V128a42.666667 42.666667 0 0 1 42.666666-42.666667zM640 704a42.666667 42.666667 0 1 1 0 85.333333H384a42.666667 42.666667 0 1 1 0-85.333333z m0-213.333333a42.666667 42.666667 0 1 1 0 85.333333H384a42.666667 42.666667 0 1 1 0-85.333333z m0-213.333334a42.666667 42.666667 0 1 1 0 85.333334H384a42.666667 42.666667 0 1 1 0-85.333334z m128-277.333333a42.666667 42.666667 0 1 1 0 85.333333H256a42.666667 42.666667 0 1 1 0-85.333333z" p-id="8825"></path></svg>
