<?xml version="1.0" standalone="no"?><!DOCTYPE svg PUBLIC "-//W3C//DTD SVG 1.1//EN" "http://www.w3.org/Graphics/SVG/1.1/DTD/svg11.dtd"><svg t="1743511431358" class="icon" viewBox="0 0 1024 1024" version="1.1" xmlns="http://www.w3.org/2000/svg" p-id="10287" xmlns:xlink="http://www.w3.org/1999/xlink" ><path d="M960 904.03H679.9C831.22 831.22 960 691.3 960 512c0-246.41-201.59-448-448-448S64 265.59 64 512s201.59 448 448 448h448v-55.97zM836.92 512c0 67.11-55.97 123.34-123.34 123.34-67.11 0-123.34-55.97-123.34-123.34s55.97-123.34 123.34-123.34S836.92 444.89 836.92 512zM512 187.08c67.11 0 123.34 55.97 123.34 123.34 0 67.11-55.97 123.34-123.34 123.34s-123.34-55.97-123.34-123.34S444.89 187.08 512 187.08zM187.08 512c0-67.11 55.97-123.34 123.34-123.34 67.11 0 123.34 55.97 123.34 123.34s-55.97 123.34-123.34 123.34S187.08 579.11 187.08 512z m201.58 201.59c0-67.11 55.97-123.34 123.34-123.34s123.34 55.97 123.34 123.34c0 67.11-55.97 123.34-123.34 123.34s-123.34-55.98-123.34-123.34z" p-id="10288"></path></svg>
