<?xml version="1.0" standalone="no"?><!DOCTYPE svg PUBLIC "-//W3C//DTD SVG 1.1//EN" "http://www.w3.org/Graphics/SVG/1.1/DTD/svg11.dtd"><svg t="1744781304926" class="icon" viewBox="0 0 1024 1024" version="1.1" xmlns="http://www.w3.org/2000/svg" p-id="14693" xmlns:xlink="http://www.w3.org/1999/xlink" ><path d="M936.6 403.9c-14.4-14-34.2-21.9-54.9-22.1h-0.1l-5.4 0.2c-13.6 0-46.1-3-55.6-31.2-8.8-26.4 10.5-59 10.4-59 23.8-33.8 14.2-79.4-21.5-102l-100.2-63c-34.5-21.9-84.2-13.8-109.8 23.2-0.2 0.5-23.3 51.7-69.7 52.9-49.9 0-70.6-58.6-72.1-62-19.6-34.6-68.8-48.7-105.7-30l-106 54c-37.8 19.3-51.9 63.9-29.5 102.5 11.8 13.2 42.4 57 27.8 83.9-19.4 36-90.2 24.9-101.4 23.9-42.5 0-77.4 32.7-78 72.8L64 561.7c-0.2 19.6 7.7 38.2 22.3 52.2 14.6 14 34 21.8 54.9 22 1.8-0.1 3.4-0.2 5-0.7 0.2 0 17.4-4.6 36.4-4.6 22.4 0 36.8 5.9 42.7 17.6 11.2 22.4-20.1 63.3-33.6 77.7-23.8 33.8-14.2 79.4 21.5 102l100.3 63.2c34.6 21.7 84.2 13.5 109.5-22.4 0.2-0.7 33.2-61.4 75.8-56.4 48.3 5.8 64.5 60.6 66.2 64.8 20.5 35.7 67.8 49.1 105.7 29.8L776.6 853c37.8-19.3 52-63.9 29.3-102.8-1.6-1.7-39.2-42.8-12-85.2 21.4-33.5 74.8-23.4 85.9-22.4 42.5 0 77.4-32.6 77.9-72.8l1.2-113.6c0.2-19.7-7.7-38.3-22.3-52.3zM511.5 654.6c-85.3-0.1-154.4-65.3-154.6-145.8 0.2-80.5 69.3-145.6 154.6-145.7 85.3 0.1 154.4 65.3 154.5 145.7-0.2 80.5-69.3 145.7-154.5 145.8z" p-id="14694"></path></svg>
