<?xml version="1.0" standalone="no"?><!DOCTYPE svg PUBLIC "-//W3C//DTD SVG 1.1//EN" "http://www.w3.org/Graphics/SVG/1.1/DTD/svg11.dtd"><svg t="1743426971914" class="icon" viewBox="0 0 1024 1024" version="1.1" xmlns="http://www.w3.org/2000/svg" p-id="1493" xmlns:xlink="http://www.w3.org/1999/xlink"><path d="M998.8096 795.648a61.44 61.44 0 0 0-56.7296-37.888h-61.44v-207.6672c-61.44 36.7104-61.44 63.5392-122.88 76.0832v131.584h-61.44c-24.832 0-47.2576 15.0016-56.832 37.888-9.4208 23.04-4.096 49.408 13.3632 67.0208l122.88 122.88a61.2864 61.2864 0 0 0 86.8864 0l122.88-122.88c17.5616-17.6128 22.784-44.032 13.312-66.9696M327.68 757.76H266.24v-122.88c0-33.9456 26.3168-61.44 60.3136-61.44h368.64c101.7856 0 185.4464-82.5344 185.4464-184.32v-307.2a61.44 61.44 0 1 0-122.88 0v307.2c0 33.8944-28.672 61.44-62.5664 61.44h-368.64A183.3472 183.3472 0 0 0 143.36 634.88v122.88H81.92c-24.832 0-47.2576 14.9504-56.832 37.888-9.4208 22.9376-4.096 49.3568 13.3632 66.9696l122.88 122.88a61.2864 61.2864 0 0 0 86.8864 0l122.88-122.88A61.44 61.44 0 0 0 327.68 757.76" p-id="1494"></path></svg>
