<?xml version="1.0" standalone="no"?><!DOCTYPE svg PUBLIC "-//W3C//DTD SVG 1.1//EN" "http://www.w3.org/Graphics/SVG/1.1/DTD/svg11.dtd"><svg t="1743413280108" class="icon" viewBox="0 0 1024 1024" version="1.1" xmlns="http://www.w3.org/2000/svg" p-id="1470" xmlns:xlink="http://www.w3.org/1999/xlink" ><path d="M1009.886 451.873c-14.958-29.869-51.485-42.159-81.4-27.088l-98.957 49.464v-88.568c0-33.472-27.225-60.697-60.697-60.697H680.64c17.873-26.677 28.362-58.704 28.362-93.165 0-92.573-75.289-167.862-167.839-167.862-92.573 0-167.862 75.289-167.862 167.862 0 34.461 10.489 66.488 28.362 93.165H350.5c6.672-15.237 10.489-31.987 10.489-49.661 0-68.586-55.772-124.357-124.357-124.357s-124.357 55.772-124.357 124.357c0 17.674 3.819 34.424 10.491 49.661H68.381c-33.472 0-60.697 27.225-60.697 60.697v513.664c0 33.472 27.225 60.697 60.697 60.697h700.451c33.472 0 60.697-27.225 60.697-60.697v-70.729l98.775 49.387c8.345 4.241 17.831 6.476 27.316 6.476 33.472 0 60.697-27.225 60.697-60.697V479.075c-0.001-9.257-2.19-18.583-6.431-27.202zM447.997 231.82c0-51.371 41.794-93.165 93.165-93.165s93.143 41.794 93.143 93.165-41.772 93.165-93.143 93.165-93.165-41.794-93.165-93.165zM186.97 275.324c0-27.384 22.277-49.661 49.661-49.661s49.661 22.277 49.661 49.661-22.277 49.661-49.661 49.661-49.661-22.277-49.661-49.661z m567.862 610.022H82.381V399.682h672.451v485.664z m186.787-84.228l-112.09-56V557.785l112.09-56.045v299.378z" p-id="1471"></path></svg>
